<svg width="32" height="32" viewBox="0 0 32 32" fill="none" xmlns="http://www.w3.org/2000/svg">
<path fill-rule="evenodd" clip-rule="evenodd" d="M17.8213 5.63644C18.1779 5.43597 18.5803 5.33197 18.9882 5.33333C19.3961 5.33468 19.7978 5.44136 20.1531 5.64423C20.5086 5.84718 20.8063 6.13996 21.0144 6.49538C21.2226 6.85096 21.3331 7.25579 21.3333 7.66917V20.2648C21.3331 20.6781 21.2226 21.0834 21.0144 21.439C20.8063 21.7944 20.5086 22.0872 20.1531 22.2901C19.7978 22.493 19.3961 22.5997 18.9882 22.601C18.5803 22.6024 18.1779 22.4984 17.8213 22.2979L12.5135 19.3136H11.1372V22.4951C11.1372 23.2548 10.8302 23.979 10.2911 24.5096C9.75259 25.0394 9.02679 25.3333 8.27443 25.3333C7.52206 25.3333 6.79626 25.0394 6.2578 24.5096C5.71861 23.979 5.41168 23.2548 5.41168 22.4951V19.1488C4.48076 18.915 3.61999 18.4382 2.92596 17.7553C1.90874 16.7543 1.33325 15.3922 1.33325 13.9672C1.33325 12.5422 1.90874 11.18 2.92596 10.1791C3.94246 9.17888 5.31661 8.62074 6.74502 8.62074H12.5135L17.8213 5.63644ZM11.5293 11.2874H6.74502C6.01009 11.2874 5.30951 11.5749 4.7963 12.0799C4.28382 12.5841 3.99992 13.2635 3.99992 13.9672C3.99992 14.6709 4.28382 15.3502 4.7963 15.8545C5.30951 16.3595 6.01009 16.647 6.74502 16.647H11.5293V11.2874ZM14.196 17.2003L18.6666 19.7139V8.22044L14.196 10.734V17.2003ZM8.07835 19.3136V22.4951C8.07835 22.5336 8.09369 22.5749 8.12814 22.6088C8.16332 22.6434 8.21554 22.6666 8.27443 22.6666C8.33331 22.6666 8.38554 22.6434 8.42072 22.6088C8.45517 22.5749 8.47051 22.5336 8.47051 22.4951V20.9043V19.3136H8.07835Z" fill="white"/>
<path fill-rule="evenodd" clip-rule="evenodd" d="M29.6095 3.72384C30.1302 4.24454 30.1302 5.08876 29.6095 5.60946L26.2761 8.94279C25.7554 9.46349 24.9112 9.46349 24.3905 8.94279C23.8698 8.42209 23.8698 7.57787 24.3905 7.05717L27.7239 3.72384C28.2446 3.20314 29.0888 3.20314 29.6095 3.72384ZM24 13.3333C24 12.5969 24.597 12 25.3333 12H30C30.7364 12 31.3333 12.5969 31.3333 13.3333C31.3333 14.0697 30.7364 14.6666 30 14.6666H25.3333C24.597 14.6666 24 14.0697 24 13.3333ZM24.3905 20.2761C23.8698 19.7554 23.8698 18.9112 24.3905 18.3905C24.9112 17.8698 25.7554 17.8698 26.2761 18.3905L29.6095 21.7238C30.1302 22.2445 30.1302 23.0888 29.6095 23.6095C29.0888 24.1302 28.2446 24.1302 27.7239 23.6095L24.3905 20.2761Z" fill="white"/>
</svg>
