<svg width="16" height="21" viewBox="0 0 16 21" fill="none" xmlns="http://www.w3.org/2000/svg">
<path d="M8 5.00024C7.40666 5.00024 6.82664 5.17619 6.33329 5.50584C5.83994 5.83548 5.45542 6.30402 5.22836 6.85219C5.0013 7.40037 4.94189 8.00357 5.05764 8.58552C5.1734 9.16746 5.45912 9.70201 5.87868 10.1216C6.29824 10.5411 6.83279 10.8268 7.41473 10.9426C7.99667 11.0584 8.59987 10.9989 9.14805 10.7719C9.69623 10.5448 10.1648 10.1603 10.4944 9.66695C10.8241 9.17361 11 8.59359 11 8.00024C11 7.20459 10.6839 6.44153 10.1213 5.87892C9.55871 5.31631 8.79565 5.00024 8 5.00024ZM8 9.00024C7.80222 9.00024 7.60888 8.9416 7.44443 8.83171C7.27998 8.72183 7.15181 8.56565 7.07612 8.38293C7.00043 8.2002 6.98063 7.99914 7.01921 7.80515C7.0578 7.61117 7.15304 7.43299 7.29289 7.29314C7.43275 7.15329 7.61093 7.05804 7.80491 7.01946C7.99889 6.98087 8.19996 7.00068 8.38268 7.07636C8.56541 7.15205 8.72159 7.28022 8.83147 7.44467C8.94135 7.60912 9 7.80246 9 8.00024C9 8.26546 8.89464 8.51981 8.70711 8.70735C8.51957 8.89489 8.26522 9.00024 8 9.00024ZM8 0.000244141C5.87827 0.000244141 3.84344 0.843099 2.34315 2.34339C0.842855 3.84368 0 5.87851 0 8.00024C0 14.0002 5.37 18.5102 7.31 20.3602C7.49598 20.5375 7.74306 20.6364 8 20.6364C8.25694 20.6364 8.50402 20.5375 8.69 20.3602C10.63 18.5102 16 14.0002 16 8.00024C16 5.87851 15.1571 3.84368 13.6569 2.34339C12.1566 0.843099 10.1217 0.000244141 8 0.000244141ZM8 18.2602C6 16.3402 2 12.5402 2 8.00024C2 6.40895 2.63214 4.88282 3.75736 3.7576C4.88258 2.63239 6.4087 2.00024 8 2.00024C9.5913 2.00024 11.1174 2.63239 12.2426 3.7576C13.3679 4.88282 14 6.40895 14 8.00024C14 12.5402 10.05 16.3402 8 18.2602Z" fill="#353535" fill-opacity="0.39"/>
</svg>
