<svg width="19" height="19" viewBox="0 0 19 19" fill="none" xmlns="http://www.w3.org/2000/svg">
<path d="M8.36 16.5907C8.36198 16.9075 8.26983 17.2179 8.09523 17.4823C7.92062 17.7467 7.67144 17.9534 7.37925 18.076C7.08707 18.1986 6.76506 18.2317 6.45403 18.1711C6.143 18.1105 5.85698 17.9589 5.63221 17.7356C5.40745 17.5122 5.25407 17.2271 5.19151 16.9165C5.12896 16.6059 5.16006 16.2837 5.28086 15.9907C5.40166 15.6978 5.60673 15.4473 5.87006 15.271C6.13339 15.0948 6.44313 15.0007 6.76 15.0007C7.18262 15.0007 7.58808 15.1679 7.88785 15.4658C8.18762 15.7637 8.35736 16.1681 8.36 16.5907ZM14.95 15.0007C14.6335 15.0007 14.3242 15.0945 14.0611 15.2703C13.798 15.4461 13.5929 15.696 13.4718 15.9884C13.3507 16.2807 13.319 16.6024 13.3807 16.9128C13.4425 17.2232 13.5949 17.5083 13.8186 17.732C14.0424 17.9558 14.3275 18.1082 14.6379 18.1699C14.9482 18.2317 15.2699 18.2 15.5623 18.0789C15.8547 17.9578 16.1045 17.7527 16.2804 17.4896C16.4562 17.2265 16.55 16.9171 16.55 16.6007C16.55 16.1763 16.3814 15.7694 16.0814 15.4693C15.7813 15.1692 15.3743 15.0007 14.95 15.0007ZM18.34 5.25067L16.72 11.7407C16.5554 12.3874 16.1799 12.9607 15.6528 13.37C15.1258 13.7794 14.4773 14.0013 13.81 14.0007H7.9C7.23135 14.0007 6.58185 13.7774 6.05463 13.3661C5.52742 12.9548 5.15271 12.3792 4.99 11.7307L2.59 2.00067H1C0.734784 2.00067 0.48043 1.89531 0.292893 1.70778C0.105357 1.52024 0 1.26588 0 1.00067C0 0.735452 0.105357 0.481098 0.292893 0.293562C0.48043 0.106025 0.734784 0.000668552 1 0.000668552H3.37C3.59843 -0.00598682 3.82226 0.0658017 4.00421 0.204082C4.18615 0.342363 4.31525 0.538792 4.37 0.760669L5.15 4.00067H17.25H17.34C17.4327 3.98589 17.5273 3.98589 17.62 4.00067C17.7497 4.03314 17.8715 4.09127 17.9783 4.17164C18.0852 4.25201 18.1748 4.35299 18.2419 4.46859C18.309 4.58419 18.3523 4.71208 18.3692 4.8447C18.386 4.97731 18.3761 5.11195 18.34 5.24067V5.25067ZM16.09 6.00067H5.65L6.96 11.2407C7.01228 11.4526 7.13245 11.6416 7.30217 11.7788C7.47189 11.916 7.68185 11.9939 7.9 12.0007H13.78C14.0084 12.0073 14.2323 11.9355 14.4142 11.7973C14.5962 11.659 14.7252 11.4625 14.78 11.2407L16.09 6.00067Z" fill="#353535" fill-opacity="0.39"/>
</svg>
