<svg width="18" height="19" viewBox="0 0 18 19" fill="none" xmlns="http://www.w3.org/2000/svg">
<path fill-rule="evenodd" clip-rule="evenodd" d="M9 2.25025L2 7.50025V16.0002C2 16.5522 2.448 17.0002 3 17.0002H15C15.552 17.0002 16 16.5522 16 16.0002V7.50025L9 2.25025ZM15 19.0002H3C1.346 19.0002 0 17.6542 0 16.0002V7.50025C0 6.87325 0.3 6.27425 0.802 5.89925L8.4 0.20025C8.756 -0.06675 9.244 -0.06675 9.6 0.20025L17.199 5.90025C17.7 6.27425 18 6.87325 18 7.50025V16.0002C18 17.6542 16.654 19.0002 15 19.0002Z" fill="#353535" fill-opacity="0.39"/>
</svg>
