<?xml version="1.0" standalone="no"?>
<!DOCTYPE svg PUBLIC "-//W3C//DTD SVG 20010904//EN"
 "http://www.w3.org/TR/2001/REC-SVG-20010904/DTD/svg10.dtd">
<svg version="1.0" xmlns="http://www.w3.org/2000/svg"
 width="4788.000000pt" height="3836.000000pt" viewBox="0 0 4788.000000 3836.000000"
 preserveAspectRatio="xMidYMid meet">

<g transform="translate(0.000000,3836.000000) scale(0.100000,-0.100000)"
fill="#000000" stroke="none">
<path d="M31120 34061 c-41 -3 -82 -10 -90 -16 -15 -9 -75 -21 -167 -31 -29
-4 -58 -13 -64 -20 -6 -8 -28 -14 -49 -14 -22 0 -48 -8 -63 -20 -14 -11 -35
-20 -47 -20 -12 0 -33 -9 -47 -20 -14 -11 -33 -20 -42 -20 -9 0 -38 -11 -66
-25 -27 -13 -57 -25 -65 -25 -9 0 -23 -9 -33 -20 -9 -11 -26 -20 -37 -20 -11
0 -43 -18 -71 -40 -28 -22 -57 -40 -63 -40 -7 0 -44 -30 -82 -66 l-69 -65
-185 -3 c-137 -3 -198 -8 -234 -20 -28 -9 -82 -16 -124 -16 -41 0 -95 -7 -121
-15 -61 -19 -205 -54 -261 -63 -25 -4 -57 -16 -70 -25 -13 -9 -35 -17 -49 -17
-13 0 -38 -8 -55 -19 -17 -10 -48 -24 -69 -31 -22 -7 -51 -18 -65 -26 -15 -8
-34 -14 -43 -14 -9 0 -22 -6 -28 -14 -7 -8 -26 -18 -42 -21 -17 -4 -33 -13
-36 -21 -2 -7 -15 -16 -26 -20 -39 -11 -126 -56 -138 -70 -6 -8 -20 -14 -31
-14 -11 0 -41 -18 -67 -40 -26 -22 -51 -40 -57 -40 -5 0 -31 -20 -59 -45 -27
-25 -52 -45 -57 -45 -9 0 -171 -160 -225 -224 -23 -27 -54 -72 -70 -101 l-27
-53 -151 5 -150 5 -89 -42 c-86 -42 -196 -132 -196 -163 0 -6 -12 -34 -25 -62
-26 -51 -33 -109 -15 -120 6 -3 10 -15 10 -26 0 -56 100 -188 171 -224 34 -18
57 -78 39 -100 -7 -8 -25 -15 -41 -15 -29 0 -99 -52 -99 -74 0 -6 -7 -24 -15
-39 -30 -58 -15 -108 57 -188 38 -43 134 -119 150 -119 16 0 48 -31 48 -46 0
-6 11 -25 25 -44 14 -19 25 -44 25 -55 0 -12 13 -48 29 -81 55 -113 90 -189
96 -211 3 -13 10 -23 16 -23 5 0 16 -15 24 -32 30 -63 48 -93 61 -101 7 -4 15
-21 19 -38 4 -17 13 -33 21 -36 8 -3 21 -20 29 -37 18 -38 64 -103 163 -226
76 -95 459 -490 476 -490 4 0 33 -23 64 -51 31 -28 73 -62 93 -75 21 -13 59
-44 84 -69 26 -25 54 -45 63 -45 9 0 27 -10 41 -23 15 -13 58 -43 96 -67 39
-24 78 -52 88 -62 10 -10 24 -18 32 -18 8 0 35 -15 61 -32 66 -47 113 -72 160
-86 23 -7 44 -19 47 -27 3 -7 22 -17 41 -20 19 -4 42 -16 52 -26 9 -10 27 -19
38 -19 12 0 35 -9 51 -20 17 -11 37 -20 45 -20 8 0 32 -9 53 -20 20 -11 47
-20 60 -20 13 0 32 -9 42 -20 11 -12 31 -20 52 -20 18 0 50 -9 70 -20 21 -11
48 -20 60 -20 27 0 43 -27 43 -73 0 -38 42 -138 65 -157 8 -7 15 -20 15 -29 0
-9 20 -38 45 -66 91 -101 299 -305 310 -305 7 0 31 -18 53 -40 22 -22 49 -40
60 -40 11 0 25 -7 33 -16 18 -21 104 -64 129 -64 12 0 45 -10 73 -22 67 -29
243 -34 273 -7 11 9 30 19 44 23 41 10 110 81 110 113 0 16 9 36 20 46 15 12
20 29 20 64 0 27 4 54 9 62 15 24 84 18 143 -12 51 -26 62 -28 196 -29 110 0
147 3 164 14 32 21 72 155 69 230 -3 58 10 98 32 98 7 0 25 -7 42 -16 16 -8
57 -18 90 -21 57 -5 62 -3 98 27 20 18 37 40 37 50 0 9 9 25 20 35 11 10 20
30 20 44 0 14 7 35 15 45 8 11 15 35 15 54 0 67 28 88 185 137 50 15 97 34
106 41 8 8 22 14 30 14 8 0 35 11 60 24 57 31 115 42 133 26 21 -17 54 33 36
55 -8 10 -18 12 -29 6 -9 -4 -36 -11 -61 -15 -24 -4 -49 -11 -55 -16 -10 -8
-81 -35 -175 -67 -25 -8 -57 -21 -72 -29 -14 -8 -36 -14 -47 -14 -12 0 -39 -9
-61 -20 -22 -11 -47 -20 -57 -20 -10 0 -34 -8 -53 -18 -19 -10 -62 -24 -95
-31 -33 -7 -75 -19 -93 -27 -18 -8 -50 -14 -71 -14 -22 0 -44 -6 -51 -15 -7
-9 -29 -15 -51 -15 -22 0 -65 -9 -97 -20 -31 -12 -86 -23 -122 -27 -36 -3 -90
-12 -120 -20 -72 -20 -656 -30 -745 -14 -33 6 -91 16 -130 22 -38 6 -101 17
-140 25 -120 25 -167 34 -260 51 -49 9 -102 22 -117 30 -15 7 -55 19 -88 27
-34 8 -70 22 -79 30 -10 9 -27 16 -39 16 -12 0 -39 9 -59 20 -21 11 -49 20
-63 20 -14 0 -34 6 -45 14 -11 7 -34 17 -52 20 -18 4 -42 15 -55 25 -26 21
-181 96 -218 106 -14 4 -33 14 -42 22 -18 16 -63 42 -115 67 -17 9 -34 20 -38
26 -3 5 -13 10 -22 10 -9 0 -39 17 -67 39 -29 21 -70 48 -91 59 -22 11 -58 34
-80 52 -22 18 -58 44 -80 58 -36 23 -89 66 -179 145 -182 160 -484 463 -530
532 -19 28 -47 64 -62 80 -30 31 -44 52 -66 95 -7 14 -29 46 -50 71 -20 25
-42 58 -48 74 -9 24 -45 84 -99 165 -25 37 -61 109 -61 121 0 6 -8 23 -19 37
-10 15 -22 38 -26 52 -4 14 -16 36 -26 49 -11 13 -19 40 -19 61 0 40 -38 92
-77 104 -37 12 -112 106 -130 163 -14 46 -15 58 -3 94 8 23 30 57 50 76 31 31
39 34 78 29 61 -8 55 14 -19 69 -80 59 -92 75 -153 204 -26 52 -32 90 -28 163
2 30 13 48 65 102 64 67 141 125 166 126 8 0 22 7 31 15 27 25 166 31 227 11
56 -18 107 -65 124 -113 11 -34 46 -53 59 -33 12 19 -11 81 -42 118 -15 18
-28 42 -28 53 0 46 49 111 180 238 56 54 111 96 258 194 106 72 228 147 238
147 6 0 17 7 24 15 7 8 20 15 29 15 9 0 56 20 105 45 49 25 106 48 125 51 20
4 45 13 56 20 11 8 34 14 52 14 17 0 34 4 37 9 5 8 200 72 276 91 68 17 196
29 290 29 52 -1 125 4 161 10 45 7 97 8 165 1 54 -5 142 -10 194 -10 52 0 113
-5 135 -11 22 -6 72 -14 110 -18 102 -12 186 -31 209 -47 11 -8 35 -14 53 -14
18 0 50 -9 70 -20 22 -12 57 -20 84 -20 29 0 51 -6 59 -15 7 -8 27 -15 44 -15
33 0 93 -19 141 -44 17 -9 41 -16 53 -16 13 0 35 -9 49 -20 14 -11 38 -20 54
-20 15 0 40 -6 56 -14 84 -41 142 -66 154 -66 8 0 32 -12 54 -25 22 -14 47
-25 56 -25 9 0 22 -7 29 -15 7 -8 19 -15 27 -15 15 0 87 -34 168 -81 28 -16
61 -33 75 -39 14 -5 32 -14 40 -20 8 -5 29 -16 45 -23 17 -8 36 -22 44 -31 8
-9 35 -26 62 -37 26 -11 57 -32 70 -45 12 -13 28 -24 36 -24 7 0 30 -17 51
-37 21 -21 55 -47 75 -57 20 -10 57 -38 81 -62 25 -23 55 -48 68 -55 55 -29
407 -373 458 -446 14 -21 44 -57 65 -80 59 -63 115 -129 115 -137 0 -4 19 -33
43 -64 24 -31 53 -73 65 -93 12 -20 29 -42 37 -49 23 -19 20 8 -5 45 -33 51
-44 67 -86 135 -23 36 -60 91 -83 121 -22 30 -41 59 -41 66 0 7 -6 16 -13 20
-8 4 -54 55 -104 113 -50 58 -118 133 -152 167 -38 39 -61 71 -61 85 0 12 17
40 38 63 55 58 77 129 77 245 -1 143 -30 193 -148 255 -40 21 -62 25 -131 25
-103 0 -116 10 -98 76 23 84 17 116 -30 166 -24 26 -56 49 -73 53 -16 3 -37
12 -45 19 -18 15 -189 40 -212 31 -9 -4 -26 -1 -38 5 -19 10 -22 18 -17 52 3
22 15 50 26 62 12 12 21 34 21 48 0 14 9 37 20 51 11 14 20 37 20 51 0 15 7
53 17 86 15 57 15 63 -2 122 -19 64 -39 98 -59 98 -7 0 -19 9 -29 20 -9 11
-29 20 -46 20 -16 0 -34 6 -40 14 -11 14 -44 21 -146 32 -27 4 -56 11 -63 16
-26 22 -399 34 -592 19z m441 -66 c19 -11 52 -15 97 -14 66 2 81 -2 212 -50
85 -32 85 -32 84 -186 -1 -107 -4 -138 -16 -152 -9 -10 -23 -34 -31 -54 -19
-47 -125 -159 -187 -199 -28 -18 -50 -37 -50 -43 0 -13 87 -97 101 -97 5 0 26
15 47 34 21 19 51 38 67 42 17 4 39 13 50 20 61 42 311 -10 343 -71 22 -42 9
-132 -24 -166 -33 -34 -26 -55 29 -93 45 -32 97 -38 137 -16 21 11 80 7 152
-11 25 -6 39 -17 44 -32 4 -12 15 -32 25 -45 27 -35 16 -207 -18 -274 -34 -68
-63 -66 -134 8 -80 82 -423 337 -487 362 -9 3 -53 27 -97 52 -157 91 -333 176
-463 226 -40 15 -75 31 -78 36 -3 4 -13 8 -23 8 -10 0 -29 8 -42 19 -13 10
-42 21 -64 25 -21 4 -52 19 -68 32 -16 13 -33 24 -38 24 -5 0 -9 9 -9 19 0 16
12 22 58 32 31 6 75 20 98 30 22 11 50 19 63 19 33 0 91 48 91 75 0 13 -6 25
-13 28 -26 10 -174 -11 -217 -31 -25 -11 -72 -31 -105 -43 -33 -12 -86 -33
-118 -46 -50 -21 -66 -23 -127 -17 -46 4 -77 13 -91 25 -14 12 -37 19 -65 19
-23 0 -55 5 -71 11 -28 11 -75 20 -203 38 -36 6 -82 17 -102 25 -21 9 -57 16
-81 16 -47 0 -74 19 -63 45 3 8 14 15 24 15 11 0 30 8 43 19 13 10 35 22 49
26 14 4 36 16 49 26 13 11 34 19 46 19 12 0 28 7 35 15 7 8 19 15 26 15 12 0
83 32 159 72 10 6 42 17 70 24 72 18 146 43 177 60 14 8 39 14 55 14 15 1 39
7 53 15 14 8 39 14 56 15 16 0 34 4 40 9 5 5 47 12 94 15 47 3 108 10 135 15
88 15 243 13 276 -4z m527 -4753 c3 -25 -5 -41 -35 -77 -42 -49 -76 -57 -123
-30 -14 8 -44 14 -67 15 -52 0 -92 15 -100 36 -8 21 9 30 70 38 28 4 59 14 71
22 11 8 34 14 51 14 16 0 37 5 45 10 8 6 31 9 50 8 32 -3 35 -6 38 -36z
m-1848 -42 c30 -11 76 -19 101 -20 25 0 68 -6 95 -14 27 -8 110 -20 184 -25
74 -6 162 -16 195 -21 80 -13 270 -13 375 1 83 11 150 16 301 23 42 2 86 9 98
15 12 7 52 15 89 18 l67 5 -1 -128 c-1 -71 -4 -146 -9 -166 -12 -61 -80 -109
-138 -99 -5 1 -30 4 -55 8 -26 3 -64 18 -86 32 -112 75 -123 80 -191 82 -76 3
-94 -8 -77 -45 9 -20 7 -32 -9 -62 -10 -21 -19 -58 -19 -84 0 -36 -7 -56 -31
-88 -17 -23 -34 -42 -38 -42 -4 0 -28 -14 -54 -31 -45 -29 -49 -30 -139 -27
-103 5 -178 30 -246 85 -21 17 -48 34 -62 38 -32 10 -188 138 -217 178 -13 17
-44 51 -70 77 -61 59 -153 181 -183 243 -21 41 -22 50 -10 57 23 15 70 11 130
-10z"/>
<path d="M30149 32831 c11 -15 27 -34 36 -41 8 -7 15 -21 15 -30 0 -10 11 -32
25 -48 14 -17 25 -42 25 -56 0 -15 6 -37 14 -49 7 -12 16 -43 20 -70 3 -26 12
-61 21 -77 20 -39 21 -278 1 -318 -7 -15 -17 -56 -21 -92 -4 -36 -13 -76 -21
-90 -7 -14 -16 -51 -19 -82 -4 -33 -14 -67 -26 -82 -10 -13 -19 -31 -19 -39 0
-8 -9 -26 -20 -40 -11 -14 -20 -29 -20 -35 0 -5 -9 -17 -20 -27 -11 -10 -20
-28 -20 -40 0 -12 -9 -34 -20 -48 -11 -14 -20 -30 -20 -35 0 -6 -10 -19 -23
-29 -12 -10 -37 -37 -56 -61 -19 -24 -50 -54 -70 -67 -20 -13 -51 -37 -68 -53
-18 -17 -43 -34 -55 -38 -13 -4 -39 -15 -58 -25 -20 -11 -55 -19 -82 -19 -53
0 -66 -20 -25 -41 12 -7 41 -28 64 -47 37 -31 43 -42 48 -86 7 -58 -14 -163
-42 -216 -58 -109 -245 -320 -282 -320 -15 0 -81 -33 -80 -39 0 -3 14 -17 32
-31 46 -37 127 -33 188 8 71 48 164 156 213 247 15 28 33 61 41 75 53 92 60
121 60 260 l0 135 45 24 c74 40 189 148 241 224 27 40 49 77 49 83 0 6 9 19
20 29 11 10 20 28 20 40 0 13 7 28 14 35 8 6 20 28 27 48 12 36 39 95 62 137
6 11 14 40 18 65 4 25 14 65 23 90 8 25 20 81 27 125 6 44 16 88 21 99 13 24
1 197 -18 251 -7 22 -14 51 -14 65 0 14 -9 39 -20 55 -11 17 -20 44 -20 62 0
19 -7 37 -18 45 -10 7 -37 43 -61 80 -45 70 -83 100 -139 111 l-33 7 20 -29z
m171 -207 c0 -16 -16 -19 -25 -4 -8 13 4 32 16 25 5 -4 9 -13 9 -21z m37 -96
c-3 -8 -6 -5 -6 6 -1 11 2 17 5 13 3 -3 4 -12 1 -19z"/>
<path d="M31344 32379 c-4 -7 -10 -44 -14 -84 -8 -78 -32 -139 -87 -217 -38
-55 -40 -64 -14 -78 11 -5 23 -24 26 -42 4 -18 16 -43 26 -56 14 -18 17 -34
12 -72 -4 -35 -2 -55 8 -66 8 -9 19 -56 26 -103 6 -47 16 -121 23 -163 11 -73
11 -79 -9 -107 -12 -16 -21 -44 -21 -62 0 -17 -12 -57 -27 -87 -32 -66 -167
-211 -220 -236 -21 -10 -55 -27 -75 -37 -20 -11 -44 -19 -52 -19 -28 0 -17
-25 28 -63 50 -41 57 -43 94 -23 15 8 39 17 53 20 14 3 43 19 65 36 21 16 48
37 59 45 10 8 22 15 25 15 5 0 41 45 92 115 4 6 18 24 31 40 13 17 27 48 31
70 4 22 14 47 21 55 19 22 39 297 25 348 -5 20 -10 53 -10 73 0 41 -46 123
-115 204 -55 64 -55 83 0 144 19 21 35 47 35 58 0 11 9 32 20 45 16 20 20 44
22 125 2 73 -1 105 -11 117 -15 18 -56 21 -67 5z m11 -198 c3 -5 1 -12 -5 -16
-5 -3 -10 1 -10 9 0 18 6 21 15 7z m42 -843 c-3 -8 -6 -5 -6 6 -1 11 2 17 5
13 3 -3 4 -12 1 -19z"/>
<path d="M28756 32369 c-52 -14 -137 -83 -163 -134 -32 -61 -42 -132 -29 -209
12 -68 16 -75 80 -143 37 -39 79 -75 94 -81 125 -44 184 -44 272 1 55 27 71
42 111 102 44 64 48 75 54 152 6 72 5 87 -14 126 -11 24 -21 48 -21 53 0 18
-64 73 -122 103 -50 27 -69 31 -148 33 -50 2 -101 0 -114 -3z"/>
<path d="M17390 31919 c-25 -4 -74 -13 -110 -18 -71 -10 -147 -40 -187 -71
-14 -11 -34 -20 -45 -20 -10 0 -35 -10 -56 -23 -20 -12 -46 -28 -57 -35 -11
-7 -31 -17 -45 -24 -14 -7 -44 -27 -67 -45 -23 -18 -47 -33 -54 -33 -6 0 -21
-9 -33 -21 -12 -11 -38 -34 -60 -50 -71 -53 -164 -137 -353 -320 -110 -105
-323 -341 -323 -356 0 -5 -17 -25 -37 -45 -21 -19 -57 -59 -80 -89 -24 -30
-74 -94 -113 -143 -38 -49 -70 -96 -70 -106 0 -10 -11 -25 -25 -34 -24 -16
-52 -55 -95 -130 -10 -18 -24 -44 -32 -57 -7 -13 -20 -33 -29 -44 -9 -11 -20
-31 -24 -45 -4 -14 -16 -36 -26 -49 -11 -13 -19 -28 -19 -34 0 -5 -16 -32 -36
-59 -20 -28 -38 -67 -41 -87 -3 -20 -14 -47 -25 -60 -10 -13 -18 -34 -18 -46
0 -12 -9 -30 -20 -40 -11 -10 -20 -26 -20 -35 0 -10 -9 -29 -20 -43 -11 -14
-20 -35 -20 -46 0 -12 -9 -38 -20 -58 -11 -21 -20 -47 -20 -58 0 -12 -9 -38
-20 -60 -11 -22 -20 -55 -20 -75 0 -19 -9 -48 -20 -65 -11 -16 -20 -46 -20
-65 0 -19 -5 -83 -12 -143 -10 -98 -13 -108 -33 -113 -13 -3 -40 3 -63 15 -27
14 -60 21 -94 21 -34 0 -68 7 -93 20 -22 11 -54 20 -73 20 -18 0 -45 6 -60 14
-16 8 -61 18 -102 21 -44 5 -82 14 -92 23 -12 10 -53 18 -120 24 -57 4 -121
15 -143 22 -22 8 -84 17 -138 20 -53 3 -105 10 -115 15 -26 14 -485 40 -694
39 -153 0 -182 2 -215 18 l-38 19 -3 79 c-2 60 -8 85 -22 104 -11 14 -20 37
-20 52 0 15 -10 39 -21 54 -12 15 -27 46 -34 68 -13 45 -107 170 -143 189 -13
8 -30 25 -38 40 -8 17 -25 30 -43 34 -16 3 -35 13 -42 21 -6 8 -17 14 -24 14
-7 0 -32 9 -56 20 -63 28 -269 29 -331 1 -24 -11 -50 -22 -58 -26 -34 -13
-144 -88 -212 -144 -17 -13 -34 -35 -39 -48 -7 -18 -16 -23 -42 -23 -31 0 -36
5 -65 58 -16 33 -54 82 -84 111 l-53 52 -135 -3 c-108 -3 -140 -7 -160 -21
-13 -9 -31 -17 -40 -17 -8 0 -32 -9 -53 -20 -20 -11 -44 -20 -52 -20 -8 0 -20
-9 -27 -20 -7 -11 -20 -20 -30 -20 -21 0 -91 -55 -181 -143 -63 -62 -73 -68
-105 -65 -36 3 -36 4 -48 63 -14 66 -56 166 -79 185 -8 7 -15 23 -15 35 0 12
-9 34 -20 48 -11 14 -20 34 -20 44 0 11 -9 31 -20 44 -11 13 -48 60 -82 104
-68 89 -121 145 -138 145 -5 0 -19 9 -30 20 -11 11 -31 20 -44 20 -14 0 -40 9
-59 20 -28 17 -44 19 -95 14 -34 -4 -67 -13 -73 -20 -6 -8 -29 -14 -50 -14
-24 0 -45 -7 -56 -19 -10 -10 -32 -22 -50 -25 -17 -4 -37 -14 -44 -22 -6 -8
-17 -14 -23 -14 -7 0 -23 -11 -36 -25 -13 -14 -34 -25 -48 -25 -14 0 -45 -17
-72 -40 -26 -22 -53 -40 -60 -40 -6 0 -25 -10 -41 -22 -30 -24 -173 -141 -199
-164 -244 -214 -390 -356 -415 -404 -8 -16 -20 -30 -24 -30 -10 0 -171 -195
-171 -207 0 -4 -13 -21 -30 -38 -16 -16 -39 -48 -52 -71 -13 -22 -36 -60 -53
-85 -16 -24 -41 -68 -56 -97 -15 -29 -34 -61 -42 -70 -8 -9 -29 -47 -47 -85
-18 -37 -36 -69 -40 -72 -5 -3 -12 -20 -16 -38 -3 -17 -15 -43 -25 -56 -11
-13 -19 -33 -19 -45 0 -12 -9 -29 -20 -39 -11 -9 -20 -29 -20 -43 0 -14 -9
-37 -20 -51 -11 -14 -20 -38 -20 -53 0 -15 -8 -35 -19 -44 -10 -9 -21 -34 -25
-54 -3 -20 -12 -49 -20 -64 -8 -15 -17 -42 -21 -60 -4 -18 -14 -37 -21 -43 -8
-5 -17 -35 -20 -65 -4 -30 -15 -69 -25 -86 -11 -17 -19 -48 -19 -69 0 -22 -7
-46 -16 -57 -12 -12 -19 -43 -22 -95 -3 -51 -10 -84 -20 -96 -17 -19 -18 -23
-20 -268 l-2 -156 -146 -149 c-151 -154 -286 -306 -387 -435 -108 -139 -137
-178 -137 -185 0 -3 -10 -19 -23 -34 -12 -15 -28 -36 -34 -46 -7 -10 -35 -53
-63 -94 -27 -41 -50 -81 -50 -89 0 -8 -7 -23 -17 -33 -18 -20 -36 -50 -54 -88
-6 -14 -15 -32 -20 -40 -5 -8 -18 -33 -29 -55 -11 -22 -24 -47 -29 -55 -5 -8
-23 -44 -41 -80 -17 -36 -38 -76 -46 -90 -7 -14 -14 -34 -14 -46 0 -11 -9 -29
-20 -39 -11 -10 -20 -31 -20 -47 0 -17 -9 -41 -20 -55 -11 -14 -20 -36 -20
-48 0 -12 -9 -34 -20 -48 -11 -14 -20 -38 -20 -54 0 -15 -9 -41 -20 -58 -11
-16 -20 -44 -20 -61 0 -17 -9 -43 -20 -57 -11 -14 -20 -40 -20 -59 0 -18 -9
-50 -20 -70 -11 -21 -23 -57 -26 -80 -4 -24 -13 -52 -20 -63 -7 -11 -16 -40
-20 -65 -4 -25 -15 -61 -26 -80 -10 -19 -18 -54 -18 -78 0 -23 -7 -58 -15 -78
-8 -19 -19 -83 -26 -142 -6 -59 -16 -116 -21 -126 -6 -10 -14 -91 -19 -180 -5
-89 -12 -183 -15 -211 -3 -27 -5 -61 -4 -75 5 -238 19 -405 41 -480 5 -19 16
-73 24 -120 8 -47 17 -97 21 -111 5 -23 0 -30 -44 -57 -27 -18 -55 -32 -62
-32 -19 0 -260 -246 -260 -266 0 -9 -9 -27 -20 -41 -11 -14 -20 -32 -20 -40 0
-8 -9 -26 -20 -40 -13 -16 -20 -41 -20 -67 0 -24 -8 -53 -20 -71 -18 -27 -20
-46 -19 -186 0 -136 3 -159 20 -185 10 -16 19 -43 19 -60 0 -18 8 -38 19 -48
11 -10 23 -37 27 -59 5 -32 18 -53 55 -89 26 -27 54 -48 62 -48 7 0 24 -11 37
-25 13 -14 32 -25 43 -25 11 0 28 -7 38 -16 10 -9 46 -19 81 -24 35 -4 70 -10
78 -13 25 -10 207 -17 214 -9 4 4 38 8 74 10 37 2 91 6 121 9 39 4 56 1 62 -8
13 -21 11 -36 -7 -54 -54 -54 -64 -82 -64 -184 0 -70 4 -102 15 -117 8 -10 19
-36 25 -57 12 -40 74 -117 95 -117 6 0 20 -9 30 -20 13 -15 31 -20 68 -20 27
0 76 -7 109 -16 47 -12 67 -13 92 -4 17 6 87 14 156 16 95 4 132 10 156 23 17
10 55 21 85 25 50 6 56 5 77 -19 13 -15 32 -25 48 -25 14 0 37 -9 51 -20 14
-11 34 -20 44 -20 10 0 33 -9 51 -20 18 -11 45 -20 60 -20 15 0 35 -8 45 -19
10 -10 37 -21 61 -24 24 -3 51 -12 60 -20 9 -8 41 -18 69 -22 29 -4 64 -15 77
-26 15 -12 40 -19 67 -19 26 0 50 -7 61 -17 12 -11 42 -18 81 -21 35 -2 69
-11 79 -19 10 -9 45 -17 90 -19 40 -3 89 -11 108 -19 19 -7 73 -18 120 -24 47
-5 99 -16 115 -24 17 -8 75 -17 130 -20 55 -3 119 -13 142 -21 41 -15 194 -25
431 -28 68 -1 125 -6 128 -10 3 -4 13 -4 22 1 9 4 114 9 232 10 312 2 593 12
610 21 18 10 86 18 255 30 75 5 143 15 160 24 18 8 74 16 138 19 79 4 113 10
126 21 12 11 37 16 77 16 41 0 69 6 92 20 25 15 50 20 106 20 60 0 76 3 91 20
15 16 31 20 85 20 52 0 73 5 93 20 14 11 35 20 47 20 11 0 40 9 63 19 23 10
71 22 107 26 36 4 72 13 81 21 8 8 37 18 63 23 26 5 55 16 65 25 10 9 31 16
48 16 17 0 42 9 56 20 14 11 33 20 44 20 10 0 33 9 51 20 18 11 40 20 50 20
10 0 34 8 55 19 20 10 54 22 74 26 21 4 45 13 54 21 9 8 34 18 55 21 22 3 46
11 54 18 8 7 31 16 50 20 19 4 46 16 59 26 13 11 29 19 36 19 6 0 20 9 30 20
10 11 30 20 45 20 15 0 35 9 45 20 10 11 30 20 46 20 17 0 47 15 79 41 28 22
64 42 79 44 27 4 114 56 126 76 10 16 51 10 78 -11 14 -11 29 -20 34 -20 5 0
19 -11 31 -25 12 -14 29 -25 38 -25 9 0 27 -9 41 -20 14 -11 40 -20 57 -20 17
0 39 -7 49 -15 11 -7 49 -17 85 -20 37 -4 87 -14 112 -22 40 -13 110 -20 236
-22 33 -1 43 -5 47 -21 6 -23 -36 -105 -58 -114 -8 -3 -15 -16 -15 -29 0 -14
-7 -30 -16 -38 -8 -7 -28 -40 -44 -74 -16 -34 -36 -67 -44 -74 -9 -8 -16 -23
-16 -35 0 -13 -13 -37 -30 -56 -16 -18 -37 -54 -46 -79 -10 -25 -26 -55 -36
-67 -10 -11 -18 -32 -18 -46 0 -14 -9 -33 -20 -43 -11 -10 -20 -26 -20 -35 0
-9 -9 -25 -20 -35 -11 -10 -20 -31 -20 -46 0 -18 -8 -34 -20 -41 -12 -8 -20
-24 -20 -40 0 -15 -8 -33 -18 -40 -10 -7 -22 -31 -25 -53 -4 -22 -13 -45 -21
-51 -8 -5 -18 -23 -22 -40 -4 -16 -13 -37 -21 -46 -8 -9 -17 -36 -20 -60 -3
-24 -14 -54 -24 -67 -11 -13 -19 -38 -19 -55 0 -17 -9 -42 -20 -56 -11 -14
-20 -36 -20 -49 0 -13 -8 -38 -19 -55 -12 -21 -20 -58 -24 -114 -3 -56 -10
-87 -20 -95 -10 -8 -17 -41 -22 -102 -4 -53 -14 -108 -26 -134 -14 -32 -19
-66 -19 -132 0 -62 -5 -99 -17 -124 -14 -30 -15 -41 -5 -69 14 -38 8 -63 -16
-70 -10 -2 -66 -8 -127 -11 -89 -6 -113 -11 -128 -26 -10 -10 -28 -19 -40 -19
-12 0 -39 -9 -60 -20 -20 -11 -44 -20 -53 -20 -9 0 -27 -9 -41 -20 -14 -11
-36 -20 -49 -20 -14 0 -32 -9 -41 -20 -10 -11 -28 -20 -40 -20 -13 0 -31 -9
-40 -20 -10 -11 -25 -20 -34 -20 -46 0 -349 -294 -349 -338 0 -6 -18 -30 -40
-54 -22 -23 -40 -49 -40 -56 0 -14 -47 -109 -65 -132 -7 -8 -15 -32 -18 -53
-3 -20 -12 -44 -20 -51 -8 -8 -17 -35 -20 -60 -4 -26 -15 -58 -24 -73 -16 -24
-18 -54 -18 -266 0 -220 1 -240 18 -252 11 -8 21 -31 24 -54 3 -22 12 -46 19
-52 8 -6 14 -18 14 -25 0 -8 11 -24 25 -36 14 -12 25 -27 25 -35 0 -15 188
-213 203 -213 6 0 18 -7 28 -16 19 -17 45 -32 134 -76 117 -59 161 -78 180
-78 11 0 28 -9 38 -20 12 -15 29 -20 64 -20 27 0 53 -6 63 -15 9 -8 39 -18 66
-21 27 -4 56 -12 64 -19 8 -7 51 -16 95 -20 87 -8 105 -16 105 -49 0 -28 -18
-46 -47 -46 -15 0 -48 -24 -93 -69 -56 -54 -70 -74 -70 -98 0 -16 -9 -40 -20
-53 -11 -13 -20 -36 -20 -52 0 -17 -9 -41 -19 -54 -17 -21 -19 -39 -16 -159 2
-109 5 -139 19 -153 9 -10 16 -27 16 -38 0 -41 98 -184 127 -184 7 0 18 -9 25
-21 7 -11 40 -34 73 -51 33 -16 74 -37 90 -45 82 -43 104 -52 141 -58 21 -4
49 -14 61 -21 13 -8 44 -17 70 -21 27 -3 55 -12 64 -20 9 -7 43 -16 75 -19 33
-3 69 -12 80 -19 14 -9 74 -16 175 -21 l154 -7 35 -40 c48 -56 67 -75 214
-212 70 -66 146 -139 169 -163 22 -23 59 -53 81 -66 23 -13 57 -40 75 -60 19
-20 40 -36 45 -36 6 0 33 -21 59 -45 26 -25 51 -45 55 -45 5 0 26 -17 48 -37
21 -21 59 -51 84 -68 25 -16 64 -46 87 -67 24 -21 49 -38 57 -38 19 0 97 -52
135 -91 16 -16 34 -29 39 -29 5 0 17 -9 26 -19 10 -11 31 -23 47 -26 16 -4 31
-11 34 -16 4 -5 14 -9 23 -9 10 0 39 -20 66 -45 27 -24 58 -48 70 -51 12 -4
32 -15 45 -25 13 -11 30 -19 38 -19 14 0 56 -29 94 -65 9 -8 23 -15 32 -15 10
0 25 -9 34 -20 10 -11 25 -20 33 -20 9 0 27 -11 40 -25 13 -14 28 -25 33 -25
5 0 20 -9 34 -20 14 -11 33 -20 43 -20 9 0 25 -9 35 -20 10 -11 24 -20 31 -20
7 0 19 -7 28 -15 8 -9 31 -22 50 -30 19 -8 37 -19 40 -24 4 -5 19 -12 35 -16
16 -3 32 -13 35 -21 3 -8 12 -14 19 -14 8 0 25 -8 38 -19 13 -10 40 -21 60
-25 20 -3 44 -15 54 -26 10 -11 27 -20 37 -20 10 0 21 -7 24 -15 4 -8 18 -15
34 -15 16 0 42 -11 58 -25 17 -14 41 -25 56 -25 15 0 30 -8 36 -20 6 -11 21
-20 34 -20 13 0 35 -9 49 -20 14 -11 38 -20 55 -20 16 0 37 -9 47 -20 10 -11
30 -20 45 -20 15 0 39 -9 54 -21 15 -12 44 -22 67 -23 28 -2 44 -9 55 -24 12
-17 25 -22 58 -22 30 0 48 -6 61 -20 11 -12 31 -20 50 -20 19 0 39 -8 50 -20
13 -14 31 -20 60 -20 29 0 47 -6 60 -20 12 -14 31 -20 58 -20 28 0 48 -7 63
-21 14 -13 38 -22 63 -23 30 -2 46 -8 57 -24 12 -18 25 -22 64 -22 35 0 52 -5
58 -16 6 -11 27 -18 58 -21 30 -2 56 -11 69 -23 15 -14 35 -20 67 -20 32 0 50
-6 63 -20 13 -15 31 -20 65 -20 34 0 52 -5 65 -20 14 -15 31 -20 70 -20 36 0
60 -6 76 -18 14 -11 50 -22 84 -26 32 -4 67 -14 76 -22 9 -8 43 -18 75 -21 33
-3 75 -14 94 -25 20 -10 55 -18 83 -18 34 0 57 -6 74 -20 19 -15 41 -20 82
-20 37 0 65 -6 80 -17 16 -10 55 -19 108 -23 56 -5 89 -12 101 -23 14 -13 38
-17 95 -17 62 0 81 -4 96 -19 14 -14 38 -19 109 -23 50 -2 96 -9 104 -15 18
-16 128 -33 208 -33 41 0 85 -8 118 -20 41 -16 77 -20 170 -20 88 0 124 -4
147 -16 23 -12 77 -18 220 -24 112 -5 204 -13 225 -21 27 -10 193 -14 748 -17
644 -3 716 -1 745 13 25 13 78 18 243 24 153 5 216 10 228 20 10 9 68 16 171
22 112 6 162 13 178 24 27 19 77 19 121 1 25 -10 35 -22 40 -46 3 -18 21 -47
41 -66 19 -18 35 -37 35 -43 0 -5 8 -16 18 -23 10 -7 31 -30 46 -50 16 -21 33
-38 38 -38 5 0 37 -28 71 -63 34 -35 73 -68 87 -75 29 -14 54 -29 89 -55 13
-9 34 -17 47 -17 14 0 23 -5 21 -12 -1 -7 54 -41 123 -76 69 -34 129 -67 134
-73 6 -5 17 -9 27 -9 9 0 28 -9 42 -20 14 -11 31 -20 39 -20 7 0 29 -9 49 -19
20 -11 54 -23 75 -27 22 -4 50 -15 63 -25 13 -11 32 -19 41 -19 10 0 23 -7 30
-15 6 -7 33 -17 58 -21 26 -4 58 -15 71 -25 13 -11 40 -19 60 -19 20 0 48 -8
61 -17 13 -9 45 -20 70 -24 42 -7 140 -38 185 -59 11 -5 49 -14 84 -20 36 -7
74 -18 85 -26 11 -8 38 -14 60 -14 21 0 57 -5 80 -11 22 -6 64 -17 91 -24 28
-8 84 -16 125 -20 41 -3 98 -13 125 -20 67 -19 423 -28 590 -16 124 9 216 26
315 58 25 8 70 19 100 24 30 6 61 16 70 23 8 8 34 17 57 21 23 3 47 12 53 20
6 7 27 16 46 20 19 3 44 15 55 26 10 10 26 19 35 19 9 0 34 15 57 34 23 18 56
40 72 49 33 17 147 135 211 218 22 30 60 94 83 143 l42 89 -4 221 c-2 121 -9
241 -15 266 -6 25 -13 63 -16 85 -4 22 -17 82 -29 133 -25 106 -19 129 29 124
191 -19 304 -21 369 -8 39 8 95 17 125 21 30 3 64 12 75 19 11 7 39 15 63 19
24 3 51 12 60 20 9 8 33 18 52 22 19 4 46 16 59 26 13 11 38 19 56 19 19 0 39
8 50 20 10 11 24 20 30 20 21 0 130 52 138 67 4 7 13 13 20 13 21 1 147 91
147 106 0 4 12 26 28 48 26 38 27 44 27 160 0 179 -15 343 -36 410 -11 33 -19
71 -19 86 0 15 -13 51 -30 81 -16 30 -30 62 -30 72 0 9 -13 36 -30 59 -32 43
-38 79 -17 96 6 6 41 12 77 14 68 5 220 34 255 49 22 10 44 23 87 51 15 10 33
18 40 18 22 0 108 85 108 106 0 11 7 30 16 43 10 13 26 56 38 95 28 98 35 379
11 476 -9 36 -15 81 -15 100 3 73 -14 186 -32 215 -10 16 -18 46 -18 65 0 32
16 52 190 229 105 107 190 198 190 202 0 5 36 43 80 86 44 42 80 82 80 87 0 6
33 44 74 86 142 144 221 232 254 280 36 54 76 90 101 90 9 0 30 9 46 20 47 31
66 27 63 -15 -1 -19 -6 -35 -10 -35 -16 0 -8 -37 12 -55 11 -10 20 -23 20 -28
0 -6 16 -25 35 -44 19 -19 35 -42 35 -52 0 -19 54 -74 83 -84 11 -4 17 -17 17
-37 0 -20 5 -30 15 -30 8 0 15 9 15 20 0 18 2 19 20 8 23 -15 26 -28 6 -28 -8
0 -18 -5 -21 -10 -8 -14 14 -42 29 -37 14 5 46 -36 46 -58 0 -20 105 -131 172
-183 26 -20 50 -44 53 -53 10 -31 234 -244 261 -247 14 -2 28 -10 31 -18 3 -8
11 -14 19 -14 8 0 14 -6 14 -14 0 -8 10 -22 22 -30 12 -9 50 -43 84 -76 34
-33 69 -60 78 -60 10 0 34 -17 54 -38 56 -58 132 -116 185 -143 27 -13 53 -31
58 -41 5 -9 18 -20 30 -23 20 -7 36 -18 82 -61 34 -31 84 -64 97 -64 7 0 34
-18 60 -40 26 -22 53 -40 58 -40 6 0 23 -11 38 -25 15 -14 35 -25 45 -25 10 0
29 -10 42 -22 41 -38 70 -58 87 -58 10 0 25 -9 35 -20 10 -11 24 -20 30 -20 7
0 24 -9 38 -20 14 -11 31 -20 39 -20 7 0 39 -18 71 -40 40 -28 68 -40 92 -40
19 0 38 -6 42 -13 16 -26 98 -77 124 -77 14 0 37 -9 51 -19 13 -11 38 -23 54
-27 16 -4 40 -15 53 -26 13 -10 32 -18 41 -18 10 0 20 -6 23 -14 3 -7 24 -16
47 -19 23 -3 47 -13 54 -23 8 -10 29 -19 51 -20 22 -2 46 -12 57 -24 11 -12
31 -20 51 -20 20 0 39 -8 50 -20 12 -14 29 -20 57 -20 28 0 45 -6 57 -20 12
-13 30 -20 54 -20 23 0 42 -7 54 -20 12 -13 31 -20 57 -20 24 0 50 -8 67 -21
15 -11 48 -23 72 -26 24 -3 52 -12 61 -21 10 -8 48 -18 87 -21 38 -4 76 -12
84 -20 10 -7 49 -14 94 -16 79 -3 92 -5 151 -31 26 -11 99 -14 361 -14 313 0
329 1 354 20 19 15 40 20 90 20 51 0 67 4 82 20 10 11 26 20 35 20 19 0 129
53 139 67 3 5 29 23 56 41 28 18 66 45 85 60 81 64 236 238 305 342 17 25 34
50 38 55 5 6 18 25 30 44 12 19 30 46 39 60 10 14 23 37 29 51 20 43 69 144
78 160 5 8 14 40 21 70 7 30 16 60 20 65 31 40 26 468 -5 520 -7 11 -18 52
-24 92 -7 39 -19 80 -26 90 -8 10 -15 30 -15 45 0 24 -25 92 -51 138 -5 8 -25
47 -45 85 -20 39 -42 77 -50 86 -8 8 -17 30 -20 47 -4 18 -10 32 -15 32 -5 0
-24 24 -43 53 -19 28 -50 68 -70 86 -20 19 -36 42 -36 50 0 9 -77 96 -170 195
-94 98 -170 182 -170 186 0 4 -25 27 -55 50 -31 24 -55 50 -55 61 0 10 -4 21
-10 24 -5 3 -10 17 -10 30 0 21 5 24 63 30 34 4 94 8 132 9 44 1 91 11 125 24
30 12 69 22 87 22 41 0 63 9 63 25 0 18 22 24 68 18 34 -5 41 -2 46 15 4 13
19 22 42 26 29 6 34 10 29 27 -6 18 -3 19 33 13 32 -5 42 -3 53 13 8 11 40 35
71 53 32 17 61 36 64 41 3 5 12 9 21 9 15 0 48 26 81 64 10 10 23 24 30 30 50
43 172 171 172 180 0 7 18 30 40 51 22 21 40 47 40 56 0 9 11 24 25 33 14 9
25 25 25 35 0 10 7 24 15 31 8 7 24 31 34 54 10 23 30 55 44 70 15 16 27 38
27 48 0 11 9 31 20 45 11 14 20 31 20 38 0 7 7 18 15 25 8 7 17 28 21 49 3 20
15 51 25 69 10 18 19 45 19 60 0 15 9 41 20 57 11 17 20 44 20 60 0 17 9 55
20 85 11 30 20 73 20 95 1 38 15 142 40 300 12 76 8 444 -5 465 -4 6 -11 40
-16 73 -5 34 -12 82 -15 107 -4 25 -13 54 -19 65 -7 11 -16 37 -19 57 -4 21
-24 72 -45 113 -22 41 -42 86 -45 100 -3 13 -19 44 -35 67 -16 24 -36 59 -45
78 -37 81 -170 226 -270 295 -32 22 -65 47 -74 55 -20 20 -103 60 -123 60 -9
0 -28 9 -41 20 -14 10 -44 24 -67 29 -23 5 -50 16 -60 25 -10 9 -34 16 -54 16
-45 0 -67 22 -67 66 0 38 -7 42 -25 17 -11 -15 -16 -13 -50 21 -30 30 -35 40
-24 47 20 13 29 11 35 -6 7 -17 34 -21 34 -5 0 6 -7 10 -15 10 -19 0 -19 17
-1 36 13 13 19 11 46 -16 49 -48 77 -35 82 40 2 18 39 49 53 44 6 -3 35 18 64
45 46 42 53 53 47 75 -6 26 8 38 17 14 8 -27 34 10 30 44 -1 18 0 27 3 20 9
-21 87 66 81 90 -3 11 0 18 9 18 7 0 20 13 28 29 9 16 22 31 29 34 8 3 17 24
20 46 3 22 14 52 26 67 12 15 21 34 21 42 0 9 8 24 17 35 11 11 18 37 19 62 1
26 9 51 18 60 20 21 24 39 29 155 3 61 10 106 21 125 22 41 24 399 2 430 -8
11 -19 60 -25 107 -5 48 -17 100 -24 115 -8 16 -18 44 -22 63 -4 19 -13 46
-20 60 -6 14 -21 45 -32 70 -44 99 -78 166 -95 189 -10 13 -18 30 -18 38 0 23
-163 227 -240 300 -90 85 -159 140 -182 146 -13 4 -30 18 -36 32 -8 17 -20 25
-36 25 -14 0 -33 8 -43 19 -10 10 -52 33 -93 51 -41 18 -79 36 -85 40 -5 5
-39 18 -75 30 -36 13 -72 28 -80 35 -14 12 -63 29 -160 57 -88 25 -146 31
-289 33 -168 2 -181 7 -155 56 8 16 14 39 14 52 0 14 7 30 15 37 8 7 20 31 26
54 6 22 17 48 24 56 24 29 65 129 65 160 0 17 9 40 20 52 12 13 20 36 20 56 0
19 8 49 19 66 14 23 20 60 25 150 5 77 13 130 23 150 13 25 16 71 16 276 -1
230 -2 247 -22 285 -11 21 -21 52 -21 68 0 16 -9 40 -20 54 -11 14 -20 32 -20
39 0 7 -9 18 -20 24 -11 6 -20 17 -20 24 0 12 -89 100 -141 139 -13 10 -37 21
-52 24 -16 3 -31 12 -34 18 -5 14 -75 42 -188 76 -79 24 -367 49 -431 37 -22
-4 -83 -7 -137 -7 -65 -1 -107 -6 -126 -15 -15 -8 -63 -18 -107 -22 -43 -4
-101 -15 -129 -24 -27 -10 -75 -21 -106 -25 -31 -3 -65 -13 -75 -20 -11 -8
-33 -15 -49 -15 -17 0 -48 -9 -68 -19 -21 -11 -56 -22 -78 -26 -22 -4 -59 -17
-82 -30 -23 -12 -69 -31 -102 -40 -33 -10 -67 -24 -75 -31 -8 -6 -35 -17 -60
-24 -25 -7 -57 -18 -72 -26 -14 -8 -33 -14 -41 -14 -9 0 -29 -11 -45 -25 -17
-14 -42 -25 -57 -25 -15 0 -38 -9 -52 -20 -14 -11 -33 -20 -42 -20 -9 0 -33
-9 -54 -20 -20 -11 -43 -20 -51 -20 -7 0 -25 -9 -39 -20 -14 -11 -32 -20 -40
-20 -8 0 -26 -9 -40 -20 -14 -11 -34 -20 -45 -20 -10 0 -27 -9 -36 -19 -10
-11 -31 -23 -46 -26 -16 -3 -34 -12 -40 -20 -6 -8 -24 -17 -40 -20 -16 -3 -34
-13 -41 -21 -6 -8 -17 -14 -24 -14 -7 0 -29 -13 -50 -30 -21 -16 -48 -30 -60
-30 -12 0 -28 -7 -35 -15 -7 -8 -18 -15 -24 -15 -6 0 -40 -20 -75 -45 -36 -25
-73 -45 -83 -45 -10 0 -18 -4 -18 -9 0 -5 -15 -14 -33 -20 -18 -6 -40 -20 -50
-31 -9 -11 -24 -20 -32 -20 -8 0 -38 -16 -66 -35 -27 -20 -60 -40 -72 -46 -12
-5 -44 -27 -72 -49 -27 -22 -57 -40 -66 -40 -9 0 -22 -7 -29 -15 -7 -8 -17
-15 -23 -15 -5 0 -34 -20 -63 -45 -28 -25 -59 -45 -68 -45 -9 0 -26 -11 -38
-25 -12 -14 -27 -25 -33 -25 -7 0 -20 -9 -31 -21 -10 -12 -39 -32 -64 -44 -25
-13 -51 -33 -58 -44 -11 -19 -27 -31 -135 -103 -22 -14 -56 -42 -76 -62 -48
-47 -139 -124 -191 -161 -23 -16 -66 -57 -97 -90 -30 -33 -92 -97 -136 -141
-167 -166 -287 -294 -287 -304 0 -5 -36 -50 -80 -100 -44 -50 -80 -100 -80
-111 0 -10 -21 -41 -46 -67 -78 -80 -84 -88 -84 -111 0 -11 -4 -21 -9 -21 -5
0 -12 -9 -16 -19 -3 -11 -26 -49 -50 -85 -24 -36 -46 -74 -49 -84 -4 -11 -15
-30 -26 -42 -11 -13 -20 -32 -20 -42 0 -11 -5 -28 -11 -40 -17 -31 -72 -16
-134 38 -29 24 -56 44 -60 44 -4 0 -13 8 -20 17 -7 10 -27 17 -49 17 -20 1
-36 5 -36 10 0 13 -70 76 -84 76 -7 0 -23 9 -36 20 -13 11 -28 20 -34 20 -7 0
-32 20 -56 45 -24 25 -52 45 -61 45 -9 0 -24 9 -34 20 -10 11 -22 20 -27 20
-9 0 -58 32 -93 61 -11 9 -31 20 -45 24 -14 4 -42 23 -63 41 -20 19 -41 34
-47 34 -5 0 -17 8 -27 19 -10 10 -31 21 -48 25 -16 4 -38 16 -48 27 -10 10
-24 19 -31 19 -7 0 -21 9 -31 20 -10 11 -26 20 -36 20 -10 0 -42 18 -70 39
-29 22 -77 52 -108 67 -31 15 -63 33 -71 40 -8 6 -26 15 -40 19 -14 4 -33 16
-43 26 -10 11 -27 19 -37 19 -11 0 -46 18 -77 40 -32 22 -70 40 -84 40 -14 0
-34 9 -44 20 -10 11 -23 20 -29 20 -12 1 -120 53 -139 68 -7 5 -25 12 -41 16
-16 4 -41 16 -54 27 -14 10 -31 19 -39 19 -7 0 -36 11 -63 25 -27 14 -59 25
-70 25 -12 0 -41 16 -64 35 -24 19 -53 35 -65 35 -12 0 -41 8 -64 19 -23 10
-58 22 -77 26 -19 4 -46 16 -59 26 -13 11 -32 19 -42 19 -10 0 -33 9 -51 20
-18 11 -42 20 -53 20 -12 0 -38 9 -60 20 -22 11 -51 20 -66 20 -14 0 -38 9
-52 20 -14 11 -36 20 -49 20 -13 0 -33 6 -43 14 -16 12 -18 23 -12 107 3 52
13 114 22 138 19 56 20 214 1 312 -8 41 -17 117 -21 169 -4 65 -12 104 -24
125 -11 16 -29 62 -42 100 -13 39 -31 79 -40 90 -10 11 -20 36 -24 55 -4 23
-23 51 -56 85 -27 27 -49 53 -49 58 0 22 -46 70 -89 91 -26 14 -53 32 -60 40
-8 9 -23 16 -35 16 -12 0 -37 13 -56 30 -21 17 -47 29 -64 30 -16 0 -44 10
-64 22 -19 12 -49 22 -66 23 -17 1 -58 10 -91 19 -74 20 -158 21 -188 1 -13
-8 -36 -14 -52 -14 -53 2 -140 -17 -165 -34 -14 -9 -39 -17 -56 -17 -17 0 -42
-8 -55 -19 -13 -10 -40 -22 -59 -26 -19 -4 -46 -16 -59 -26 -13 -11 -33 -19
-43 -19 -11 0 -33 -8 -48 -17 -43 -25 -61 -6 -53 58 7 59 -14 194 -33 210 -8
6 -14 16 -14 21 0 5 -13 38 -29 72 -30 65 -89 126 -122 126 -11 0 -32 9 -47
20 -46 33 -171 70 -240 70 -35 0 -72 5 -84 11 -14 8 -28 7 -49 -1 -16 -7 -88
-14 -161 -16 -73 -1 -151 -8 -173 -14 -22 -6 -49 -13 -60 -15 -11 -2 -47 -13
-80 -25 -33 -12 -81 -27 -106 -34 -25 -7 -56 -20 -70 -29 -13 -8 -41 -18 -62
-21 -21 -4 -41 -14 -44 -22 -3 -7 -13 -14 -22 -14 -9 0 -29 -7 -45 -15 -58
-30 -67 -18 -55 71 9 66 5 223 -10 408 -6 66 -8 123 -5 128 3 5 -2 31 -11 59
-9 27 -14 57 -11 65 3 8 -1 28 -9 44 -8 16 -15 42 -15 57 0 16 -9 46 -20 68
-11 22 -20 52 -20 67 0 15 -4 29 -9 32 -4 3 -14 32 -21 65 -9 44 -19 65 -36
76 -16 10 -24 25 -24 45 0 19 -7 33 -19 40 -11 5 -23 20 -26 32 -9 29 -76 99
-140 146 -27 20 -56 44 -63 54 -8 12 -26 18 -50 18 -20 0 -52 9 -70 20 -28 17
-50 20 -158 20 -69 0 -133 -4 -143 -10 -10 -5 -56 -12 -102 -15 -190 -13 -247
-21 -264 -35 -10 -8 -43 -15 -79 -17 -33 -1 -88 -11 -120 -23 -33 -11 -70 -20
-83 -20 -13 0 -34 -5 -46 -12 -24 -12 -65 -24 -142 -40 -27 -5 -57 -15 -65
-22 -8 -8 -32 -16 -54 -19 -21 -3 -46 -13 -55 -20 -9 -8 -35 -18 -58 -22 -22
-3 -49 -13 -60 -20 -10 -8 -30 -15 -44 -15 -15 0 -37 -9 -51 -19 -13 -11 -40
-22 -60 -26 -20 -4 -44 -16 -54 -26 -10 -11 -30 -19 -48 -19 -19 0 -38 -8 -49
-20 -9 -11 -26 -20 -37 -20 -12 0 -33 -9 -48 -19 -15 -11 -43 -22 -63 -25 -21
-4 -42 -13 -49 -21 -7 -8 -30 -20 -51 -25 -22 -6 -39 -15 -39 -20 0 -5 -16
-12 -35 -16 -19 -3 -39 -12 -46 -20 -6 -8 -17 -14 -24 -14 -7 0 -23 -8 -36
-19 -13 -10 -69 -42 -124 -71 -55 -29 -103 -58 -107 -65 -4 -7 -19 -16 -32
-19 -24 -6 -39 -14 -140 -79 -84 -54 -120 -76 -143 -86 -12 -5 -25 -16 -30
-24 -4 -8 -21 -21 -38 -30 -16 -8 -43 -27 -58 -41 -15 -14 -32 -26 -37 -26 -5
0 -17 -10 -27 -22 -10 -13 -35 -32 -56 -42 -37 -19 -37 -19 -60 2 -13 12 -32
22 -44 22 -11 0 -28 9 -38 20 -10 11 -29 20 -43 20 -14 0 -36 9 -48 21 -12 11
-40 23 -62 26 -44 6 -76 33 -85 71 -9 38 2 52 39 52 22 0 40 7 51 20 10 11 25
20 35 20 9 0 29 11 44 25 15 14 30 25 33 25 12 0 181 165 181 177 0 6 13 22
29 35 15 13 43 55 60 93 18 39 43 91 57 118 13 26 24 56 24 67 0 12 7 31 15
44 9 13 18 54 21 92 4 38 14 98 23 134 14 53 16 89 10 187 -6 110 -12 154 -40
268 -31 132 -43 174 -60 211 -11 22 -19 50 -19 61 0 11 -6 26 -14 32 -8 6 -19
32 -25 57 -7 28 -25 60 -46 81 -19 20 -35 43 -35 51 0 41 -263 282 -308 282
-10 0 -27 9 -37 20 -12 13 -31 20 -54 20 -20 0 -48 8 -61 17 -13 9 -45 18 -70
18 -25 1 -91 2 -147 3 l-102 2 -16 30 c-20 39 -20 61 1 53 21 -8 44 22 44 58
0 14 9 38 20 52 11 14 20 38 20 53 0 15 7 35 16 45 8 9 18 43 21 75 3 33 11
70 18 84 7 14 11 38 8 53 -3 15 0 40 7 56 9 23 8 50 -9 144 -12 64 -21 127
-21 140 0 13 -9 36 -20 50 -11 14 -20 34 -20 44 0 10 -8 34 -19 53 -10 19 -21
49 -25 67 -4 18 -23 51 -42 75 -18 24 -34 47 -34 52 0 33 -229 256 -287 281
-18 8 -33 18 -33 23 0 6 -12 13 -27 17 -16 3 -35 13 -44 21 -9 8 -34 18 -55
21 -22 3 -47 13 -57 21 -11 10 -43 17 -80 20 -34 2 -71 7 -82 12 -26 11 -98
20 -205 26 -62 4 -96 1 -125 -10 -22 -9 -53 -15 -70 -15 -40 1 -97 -15 -126
-35 -29 -20 -73 -21 -89 -1 -9 11 -9 28 4 78 18 71 20 215 5 292 -6 28 -16 86
-23 131 -7 44 -20 91 -29 104 -10 14 -17 44 -17 70 0 25 -6 55 -13 67 -6 12
-24 43 -39 69 -16 25 -28 52 -28 58 0 16 -103 116 -120 116 -7 0 -21 7 -31 16
-10 9 -44 19 -76 23 -32 4 -68 12 -80 19 -24 13 -27 13 -93 1z m213 -169 c14
-11 39 -20 56 -20 21 0 34 -6 38 -17 3 -10 23 -47 44 -83 20 -36 40 -83 44
-105 4 -22 15 -48 23 -58 11 -12 15 -35 14 -73 -1 -31 4 -66 10 -77 7 -13 10
-67 9 -142 -2 -66 -3 -131 -3 -145 0 -14 0 -34 1 -45 1 -11 -2 -54 -6 -95 -9
-77 -15 -89 -111 -220 -44 -59 -72 -107 -72 -123 0 -10 12 -23 28 -29 15 -7
45 -26 66 -43 28 -21 40 -26 44 -17 2 7 27 41 56 75 29 34 62 76 74 93 12 18
41 39 64 49 24 9 50 23 58 30 8 7 49 25 90 39 60 20 96 25 175 26 156 1 325
-8 338 -18 7 -5 30 -13 52 -16 22 -4 56 -15 75 -25 20 -10 51 -22 69 -26 33
-7 50 -17 147 -88 54 -39 163 -164 202 -232 13 -22 27 -42 31 -45 17 -10 64
-137 72 -195 19 -121 25 -269 13 -290 -6 -11 -14 -54 -17 -97 -3 -42 -12 -87
-20 -100 -9 -12 -19 -41 -23 -63 -4 -22 -15 -53 -26 -70 -10 -16 -18 -40 -18
-52 0 -41 -41 -102 -106 -159 -35 -31 -64 -63 -64 -71 0 -7 21 -23 47 -34 26
-11 53 -25 61 -31 8 -7 93 -12 245 -13 220 -1 234 -2 267 -23 19 -12 46 -22
59 -22 31 0 85 -33 144 -89 53 -51 177 -227 177 -252 0 -9 9 -28 21 -43 25
-32 68 -159 69 -203 0 -17 5 -44 11 -60 30 -74 27 -306 -5 -414 -8 -25 -12
-58 -9 -73 5 -25 -17 -95 -63 -204 -8 -18 -14 -39 -14 -46 0 -7 -11 -34 -25
-60 -14 -26 -25 -52 -25 -58 0 -6 -7 -20 -17 -30 -9 -10 -21 -26 -27 -37 -60
-101 -212 -262 -271 -287 -19 -7 -37 -19 -40 -24 -4 -6 -32 -23 -62 -37 -50
-22 -68 -25 -163 -24 -161 2 -170 -6 -87 -85 68 -65 105 -90 147 -99 19 -4 46
-16 59 -26 13 -11 32 -19 41 -19 22 0 114 -42 138 -62 9 -9 28 -18 42 -21 32
-8 90 -63 90 -86 0 -11 -16 -24 -42 -35 -29 -14 -137 -115 -373 -352 -182
-183 -347 -353 -366 -379 -36 -49 -148 -183 -187 -225 -13 -14 -31 -38 -39
-55 -9 -16 -38 -55 -66 -85 -27 -30 -55 -69 -63 -86 -7 -17 -26 -44 -42 -60
-16 -16 -38 -45 -50 -65 -43 -71 -48 -73 -163 -59 -56 6 -119 18 -138 25 -20
7 -65 16 -100 20 -36 3 -82 15 -102 26 -21 10 -54 19 -74 19 -20 0 -48 6 -63
14 -15 8 -52 19 -82 24 -30 6 -68 18 -85 26 -16 9 -40 16 -53 16 -12 0 -40 9
-62 20 -22 11 -52 20 -68 20 -15 0 -43 11 -62 25 -19 14 -42 25 -53 25 -10 0
-25 7 -33 15 -9 8 -28 15 -44 15 -26 0 -112 40 -162 75 -13 8 -32 15 -44 15
-12 0 -27 7 -34 16 -8 8 -28 21 -47 29 -18 8 -33 19 -33 24 0 6 -8 11 -19 11
-10 0 -30 9 -44 20 -14 11 -32 20 -40 20 -21 0 -38 24 -35 50 2 12 -4 27 -13
33 -20 12 -69 1 -69 -16 0 -7 -14 -35 -30 -61 -17 -27 -34 -62 -37 -80 -7 -32
-37 -95 -66 -137 -10 -13 -17 -32 -17 -42 0 -10 -14 -48 -31 -85 -17 -37 -45
-96 -61 -132 -17 -36 -39 -83 -49 -106 -10 -22 -19 -45 -19 -51 0 -6 -8 -21
-19 -34 -10 -13 -24 -42 -31 -64 -18 -56 -200 -425 -225 -455 -6 -8 -17 -29
-24 -47 -7 -18 -19 -38 -27 -44 -8 -6 -14 -22 -14 -34 0 -12 -8 -33 -18 -46
-11 -13 -41 -69 -67 -123 -27 -55 -57 -108 -67 -118 -10 -10 -18 -24 -18 -31
0 -8 -9 -22 -20 -32 -11 -10 -20 -24 -20 -30 0 -7 -20 -39 -45 -71 -25 -31
-45 -61 -45 -65 0 -12 -76 -123 -94 -138 -9 -8 -32 -42 -51 -76 -19 -34 -45
-70 -56 -81 -12 -10 -38 -44 -59 -74 -21 -30 -52 -68 -69 -84 -17 -17 -31 -36
-31 -44 0 -7 -16 -28 -36 -45 -20 -18 -48 -50 -62 -72 -14 -22 -42 -58 -63
-80 -20 -22 -83 -90 -139 -152 -55 -62 -110 -115 -121 -118 -11 -4 -31 -24
-45 -46 -13 -22 -38 -48 -55 -58 -16 -10 -70 -55 -118 -100 -49 -45 -104 -94
-123 -109 -19 -15 -52 -44 -74 -64 -21 -21 -42 -38 -47 -38 -4 0 -34 -24 -66
-54 -32 -30 -69 -59 -80 -66 -34 -17 -173 -125 -195 -149 -11 -11 -27 -21 -37
-21 -10 0 -46 -23 -81 -51 -35 -28 -80 -59 -100 -70 -21 -11 -38 -24 -38 -30
0 -5 -15 -16 -33 -24 -19 -8 -52 -29 -74 -48 -23 -18 -56 -39 -74 -46 -19 -7
-45 -19 -59 -26 -14 -8 -41 -22 -60 -31 -19 -9 -59 -34 -89 -55 -30 -21 -61
-39 -70 -39 -9 0 -43 -18 -76 -40 -33 -22 -67 -40 -76 -40 -8 0 -30 -11 -49
-25 -19 -14 -43 -25 -55 -25 -11 0 -43 -15 -71 -34 -28 -19 -69 -39 -91 -45
-22 -6 -46 -18 -53 -26 -7 -8 -20 -15 -29 -15 -9 0 -33 -8 -53 -19 -21 -10
-77 -31 -125 -46 -48 -15 -97 -34 -108 -41 -11 -8 -29 -14 -40 -14 -11 0 -41
-11 -67 -25 -26 -14 -55 -25 -64 -25 -9 0 -33 -9 -53 -20 -20 -10 -55 -24 -78
-30 -23 -6 -45 -15 -48 -20 -3 -6 -17 -10 -31 -10 -14 0 -46 -8 -72 -19 -68
-26 -116 -41 -136 -41 -18 0 -74 -16 -174 -51 -30 -11 -72 -19 -93 -19 -22 0
-59 -10 -81 -21 -29 -15 -59 -21 -97 -20 -34 1 -63 -5 -78 -15 -13 -8 -56 -19
-96 -24 -40 -6 -94 -15 -122 -20 -27 -6 -90 -15 -140 -20 -139 -15 -163 -18
-182 -28 -15 -8 -208 -22 -350 -26 -23 -1 -45 -4 -48 -8 -4 -4 -18 -2 -32 3
-18 7 -30 6 -40 -3 -18 -15 -90 -17 -513 -19 -327 -2 -439 4 -490 23 -14 5
-76 11 -137 14 -73 2 -135 11 -175 23 -35 11 -103 22 -151 25 -49 4 -98 11
-110 17 -11 7 -46 15 -76 20 -31 4 -78 13 -106 19 -27 6 -77 14 -110 19 -33 4
-77 16 -97 25 -21 9 -49 16 -63 16 -14 0 -45 8 -68 19 -23 10 -69 22 -102 26
-33 4 -67 13 -75 20 -8 8 -33 18 -55 24 -96 24 -176 51 -197 65 -12 9 -38 16
-57 16 -27 0 -45 10 -88 51 -43 41 -58 50 -76 44 -12 -4 -47 -10 -78 -14 -31
-3 -63 -12 -70 -18 -41 -33 -263 -22 -340 17 -93 47 -159 118 -159 170 0 12
-7 34 -15 51 -14 26 -14 34 0 75 8 24 15 58 15 74 0 17 8 37 19 46 70 60 72
63 61 85 -8 14 -17 18 -28 14 -9 -4 -44 -9 -77 -12 -33 -2 -77 -11 -98 -19
-48 -18 -179 -18 -215 0 -15 7 -45 17 -67 21 -65 11 -134 45 -225 110 -95 68
-157 125 -186 170 -17 26 -19 50 -19 230 0 190 1 202 22 236 13 20 23 50 23
67 0 17 4 33 9 37 6 3 29 40 52 83 46 84 120 162 184 194 22 12 53 32 70 46
28 24 34 24 136 20 77 -4 113 -10 132 -23 27 -17 39 -17 117 2 27 7 36 14 38
34 2 20 -6 31 -40 53 -63 41 -124 59 -209 61 -43 2 -82 6 -88 10 -22 13 -71
137 -71 179 0 22 -7 113 -17 200 -14 136 -15 177 -4 285 6 69 15 169 20 221 4
52 13 111 19 130 16 51 32 137 32 171 0 17 6 42 14 57 7 15 16 55 19 90 4 34
13 75 20 90 8 15 17 54 20 88 4 33 15 80 26 105 12 24 21 56 21 70 0 15 6 32
14 38 7 6 16 31 19 56 4 25 16 63 27 85 11 21 20 47 20 57 0 10 9 32 20 48 11
17 20 41 20 53 0 13 6 36 14 50 34 62 76 160 76 174 0 9 6 21 14 27 8 7 18 27
21 44 4 18 13 39 20 47 7 8 16 26 20 40 4 14 13 32 20 40 7 8 16 26 20 40 4
14 16 36 26 49 11 13 19 32 19 42 0 9 11 30 24 46 14 16 36 54 51 84 40 83 67
134 74 139 4 3 22 30 40 60 17 30 52 82 77 115 24 33 52 71 61 85 9 14 43 57
75 97 32 39 58 75 58 80 0 4 36 48 80 98 44 49 80 93 80 97 0 16 496 505 535
528 22 13 80 58 128 99 49 42 103 84 120 93 18 9 56 37 85 62 30 25 58 46 63
46 5 0 23 14 41 30 17 17 36 30 43 30 7 0 32 17 56 38 24 20 67 48 94 62 28
14 67 39 87 57 20 18 55 37 77 43 22 6 46 18 53 28 17 23 63 52 83 52 9 0 26
11 38 24 12 13 44 33 71 46 28 12 58 32 68 45 9 12 30 25 46 28 16 3 50 22 76
41 25 20 52 36 59 36 6 0 35 14 62 30 28 16 69 38 91 49 23 11 45 24 48 29 3
6 30 18 60 27 30 9 68 30 86 46 17 16 40 29 52 29 11 0 37 8 57 19 51 26 143
61 162 61 9 0 41 18 73 40 31 22 65 40 74 40 9 1 35 9 57 20 22 11 49 20 60
20 11 0 34 9 50 20 17 11 39 20 50 20 11 0 38 11 60 25 22 13 51 25 65 25 14
0 36 9 50 20 14 11 33 20 43 20 10 0 39 8 65 19 26 10 92 31 147 46 55 14 119
35 143 46 23 10 54 19 68 19 14 0 37 6 52 14 16 8 56 20 91 26 35 6 77 17 94
25 18 7 59 19 92 25 33 7 73 16 89 21 16 5 41 9 55 9 15 0 36 7 48 15 12 8 36
14 55 14 18 -1 56 4 83 10 90 22 148 32 265 45 63 7 129 18 145 24 27 10 151
26 300 39 44 4 246 8 650 12 127 2 293 -6 306 -15 5 -2 104 -9 221 -14 117 -5
236 -14 263 -20 28 -6 94 -15 149 -20 54 -5 119 -16 145 -24 25 -8 89 -22 141
-30 220 -36 335 -68 358 -98 15 -21 45 -23 59 -5 6 6 13 32 16 57 4 25 11 65
17 90 6 25 17 77 24 115 7 39 29 112 49 162 20 51 37 98 37 105 0 6 17 46 39
87 21 42 44 94 51 116 7 22 30 65 51 95 22 31 39 63 39 71 0 8 29 47 63 86 35
38 74 91 86 116 12 25 29 51 37 57 7 7 14 18 14 25 0 7 6 18 14 24 8 7 27 36
42 67 15 30 44 73 65 95 20 22 40 51 43 64 3 13 20 39 37 57 17 18 42 50 55
71 14 21 45 59 69 85 25 26 45 51 45 55 0 4 19 29 43 55 24 26 50 58 59 72 13
21 69 82 264 292 17 18 62 62 101 98 39 36 90 83 114 105 113 104 222 195 234
195 8 0 22 11 32 24 10 13 29 26 41 30 12 4 44 25 72 47 27 21 55 39 62 39 7
1 31 9 53 20 22 11 47 20 55 20 8 0 24 7 34 15 11 8 30 15 43 15 13 0 40 8 61
17 63 29 74 31 173 32 82 1 100 -2 122 -19z m-7344 -1557 c60 -40 165 -140
224 -213 37 -47 97 -154 97 -174 0 -6 8 -29 19 -51 46 -97 54 -145 56 -310 2
-138 -1 -166 -17 -203 -13 -29 -18 -60 -16 -95 l3 -52 35 2 c19 1 71 4 115 6
44 3 87 5 95 6 37 3 44 19 50 120 4 70 11 105 22 118 9 10 28 43 44 73 55 110
217 281 296 314 18 8 52 28 75 45 44 32 105 48 147 37 31 -8 146 -120 146
-143 0 -9 12 -36 26 -61 23 -38 25 -50 17 -77 -15 -46 -3 -59 43 -51 22 4 73
8 115 10 42 2 84 8 95 14 10 6 30 32 44 59 35 67 101 149 167 206 78 67 108
81 178 80 98 -1 155 -33 288 -166 98 -98 115 -119 120 -154 4 -22 14 -46 22
-53 18 -15 21 -135 4 -146 -6 -3 -75 -8 -153 -9 -77 -2 -190 -11 -251 -20 -60
-9 -142 -20 -180 -24 -39 -4 -79 -13 -90 -18 -11 -6 -42 -14 -70 -17 -111 -16
-261 -48 -286 -61 -14 -8 -39 -14 -55 -14 -39 1 -114 -15 -140 -29 -12 -6 -54
-18 -95 -28 -83 -18 -157 -39 -209 -59 -19 -8 -48 -16 -65 -20 -16 -4 -37 -12
-45 -20 -8 -7 -41 -18 -73 -25 -32 -6 -70 -18 -85 -26 -15 -8 -38 -14 -52 -14
-14 0 -42 -9 -63 -20 -20 -11 -44 -20 -53 -20 -9 0 -33 -9 -53 -20 -20 -11
-87 -40 -149 -65 -63 -25 -126 -54 -142 -65 -15 -11 -37 -20 -47 -20 -10 0
-36 -9 -58 -20 -22 -11 -46 -20 -54 -20 -18 0 -104 -39 -206 -93 -60 -32 -161
-77 -171 -77 -4 0 -18 -10 -30 -21 -46 -43 -74 7 -34 58 11 14 20 38 20 52 0
15 6 35 14 46 13 20 58 128 71 175 4 14 16 36 26 49 11 13 19 30 19 37 0 7 9
28 20 47 19 33 20 36 4 88 -22 74 -28 83 -55 88 -25 3 -89 -26 -89 -41 0 -4
-22 -30 -49 -56 -27 -27 -59 -70 -71 -98 -12 -27 -28 -60 -35 -74 -14 -23 -27
-52 -60 -125 -7 -16 -16 -41 -20 -55 -4 -14 -16 -36 -26 -49 -11 -13 -19 -31
-19 -40 0 -9 -7 -25 -15 -35 -8 -11 -15 -28 -15 -38 0 -10 -11 -46 -25 -80
-13 -35 -27 -80 -30 -101 -8 -47 -59 -101 -135 -141 -71 -36 -114 -63 -169
-103 -24 -18 -52 -33 -61 -33 -10 0 -40 -18 -68 -40 -27 -22 -57 -40 -66 -40
-9 0 -24 -9 -34 -21 -9 -11 -33 -29 -53 -39 -19 -10 -42 -26 -50 -36 -13 -16
-62 -50 -121 -84 -31 -18 -153 -109 -186 -139 -12 -11 -32 -25 -45 -32 -12 -6
-41 -31 -63 -55 -45 -47 -93 -61 -95 -26 -4 50 5 119 18 138 8 12 18 50 23 84
5 34 15 69 23 79 8 9 17 38 20 64 2 26 12 56 21 66 9 10 16 31 16 47 0 16 12
52 25 79 14 28 25 57 25 65 0 8 6 27 14 42 8 15 17 42 21 60 4 18 16 44 26 57
11 13 19 30 19 37 0 7 9 28 20 46 11 18 20 45 20 59 0 15 7 32 15 39 8 7 20
30 27 51 6 22 17 44 25 50 7 6 13 22 13 34 0 12 9 33 19 47 11 13 23 36 26 51
4 14 15 33 26 43 10 9 19 23 19 31 0 11 99 196 128 239 23 35 48 73 68 104 87
136 152 226 259 357 97 118 250 273 302 306 21 14 64 47 95 73 31 27 74 61 95
77 21 15 59 42 84 61 25 18 73 46 107 61 34 15 67 34 73 41 6 8 30 19 52 25
23 6 52 19 65 30 14 10 27 19 30 19 3 0 30 -17 61 -37z m12527 -2506 c30 -18
91 -89 119 -139 45 -82 95 -183 95 -193 0 -6 9 -28 20 -50 11 -22 20 -46 20
-54 0 -8 9 -44 19 -80 37 -126 51 -232 51 -382 0 -105 -4 -159 -15 -189 -8
-23 -15 -58 -15 -77 0 -19 -7 -48 -16 -65 -9 -17 -22 -51 -29 -77 -24 -82 -48
-146 -61 -161 -7 -8 -17 -33 -22 -55 -9 -40 -31 -82 -86 -165 -15 -23 -33 -57
-38 -74 -6 -17 -16 -38 -23 -46 -12 -14 -38 -91 -32 -96 17 -16 99 -37 160
-41 42 -3 77 -10 77 -15 0 -13 60 -36 112 -43 26 -3 50 -10 53 -16 14 -21 34
-6 72 54 22 34 44 72 48 85 17 56 82 152 138 205 87 81 192 167 205 167 6 0
24 11 40 25 27 22 61 40 177 89 66 28 193 66 220 66 17 0 62 9 100 20 50 14
103 20 182 20 l112 0 42 -54 c23 -30 50 -79 59 -109 9 -30 24 -65 34 -78 13
-19 16 -48 16 -145 0 -111 -2 -125 -26 -169 -14 -26 -23 -53 -21 -59 9 -22
112 -49 160 -42 42 6 46 5 49 -16 3 -24 20 -29 128 -45 25 -3 55 -12 67 -20
27 -18 35 -13 92 49 81 90 230 182 384 239 72 26 94 29 193 29 67 0 115 -4
119 -10 4 -6 23 -21 44 -34 52 -33 149 -133 171 -176 10 -20 26 -42 34 -49 9
-8 16 -19 16 -25 0 -7 20 -52 45 -100 25 -49 45 -95 45 -103 0 -7 10 -33 22
-56 18 -36 22 -60 22 -157 1 -63 -3 -150 -7 -193 -8 -67 -12 -80 -34 -94 -24
-16 -29 -16 -72 1 -25 9 -78 25 -116 35 -39 10 -85 26 -102 35 -18 9 -47 16
-66 16 -18 0 -38 5 -44 11 -6 6 -51 19 -99 29 -49 10 -102 22 -119 28 -88 30
-136 41 -195 48 -36 3 -90 13 -120 21 -49 14 -168 34 -285 49 -22 3 -49 9 -60
14 -27 11 -147 28 -285 41 -63 5 -128 15 -145 20 -32 11 -46 12 -245 29 -69 5
-147 13 -175 16 -54 7 -248 17 -685 36 -250 11 -468 11 -670 3 -41 -2 -194 -6
-340 -10 -288 -7 -525 -21 -580 -34 -19 -5 -96 -12 -170 -15 -85 -4 -151 -13
-177 -23 -35 -13 -46 -13 -58 -3 -23 19 -18 46 15 71 17 13 62 64 101 112 39
48 152 171 252 273 103 105 187 199 194 217 7 18 11 75 11 131 l-2 99 -33 13
c-53 22 -65 20 -188 -36 -195 -90 -185 -82 -461 -353 -142 -140 -279 -281
-304 -311 -25 -31 -68 -85 -96 -119 -28 -34 -69 -88 -93 -120 -55 -75 -110
-101 -246 -117 -55 -6 -117 -17 -138 -25 -20 -8 -59 -15 -85 -15 -26 0 -73 -9
-105 -20 -31 -11 -80 -20 -109 -20 -29 0 -66 -7 -82 -15 -16 -9 -64 -20 -105
-26 -42 -5 -94 -16 -116 -24 -22 -7 -62 -17 -90 -21 -27 -3 -59 -11 -70 -17
-11 -6 -51 -16 -90 -23 -38 -7 -88 -19 -110 -28 -22 -8 -54 -15 -70 -16 -17 0
-40 -6 -51 -14 -11 -8 -45 -19 -77 -25 -31 -6 -70 -17 -86 -26 -17 -8 -47 -15
-68 -15 -22 0 -48 -9 -63 -20 -14 -11 -40 -20 -58 -20 -18 0 -54 -8 -80 -18
-87 -35 -189 -64 -208 -60 -40 7 -25 59 38 133 9 11 29 43 43 70 15 27 35 55
45 62 10 7 32 34 49 60 46 72 62 94 103 144 21 26 38 53 38 61 0 8 17 29 38
47 20 19 55 59 77 90 22 31 50 68 63 81 62 67 126 141 140 162 8 13 34 43 57
68 23 25 76 81 117 125 159 170 467 474 557 550 52 44 122 106 155 137 76 70
184 158 196 158 5 0 42 28 82 63 72 62 92 78 233 175 39 26 84 57 100 69 63
43 143 93 171 105 16 7 63 36 104 64 41 28 86 55 100 59 14 4 36 16 49 26 13
11 30 19 37 19 7 0 21 8 31 19 10 10 32 22 50 25 17 4 37 13 43 21 6 8 24 17
40 20 15 3 62 24 104 46 41 21 86 39 98 39 13 0 37 9 53 20 17 11 42 20 57 20
15 0 42 9 60 20 18 11 47 20 63 20 17 0 45 9 63 20 18 11 40 20 50 20 9 0 50
11 90 25 41 14 88 25 106 25 18 0 36 4 42 9 15 14 99 31 151 31 26 0 71 7 98
16 28 9 110 19 190 23 77 4 149 8 160 9 11 1 29 -4 41 -11z m-14509 -194 c2
-6 -3 -13 -12 -16 -10 -5 -15 0 -15 14 0 21 21 22 27 2z m25994 -1506 c60 -3
82 -8 104 -25 17 -13 42 -22 64 -22 20 0 47 -9 61 -20 14 -11 33 -20 44 -20
45 0 206 -128 206 -163 0 -12 8 -35 18 -52 15 -26 17 -59 17 -261 0 -200 -2
-234 -16 -250 -10 -12 -19 -48 -24 -94 -4 -41 -11 -81 -17 -88 -6 -7 -15 -33
-19 -59 -5 -25 -16 -54 -24 -63 -8 -9 -15 -27 -15 -41 0 -13 -11 -42 -25 -64
-13 -22 -25 -54 -25 -71 0 -19 -6 -34 -15 -38 -8 -3 -20 -26 -26 -52 -7 -25
-27 -68 -45 -94 -18 -27 -36 -61 -39 -77 -12 -55 -27 -81 -51 -91 -13 -7 -24
-16 -24 -21 0 -13 -75 -65 -157 -111 -73 -41 -223 -167 -223 -188 0 -8 18 -36
40 -62 22 -26 40 -51 40 -55 0 -18 57 -94 70 -95 9 0 27 8 40 17 25 18 64 41
110 65 14 7 30 18 35 25 6 6 38 25 71 42 34 17 67 38 74 46 8 10 30 15 62 15
27 0 65 7 86 16 50 21 248 20 289 -1 15 -8 48 -15 73 -15 25 0 65 -9 89 -20
24 -11 51 -20 60 -20 9 0 28 -6 43 -14 14 -8 43 -19 65 -26 21 -7 47 -19 58
-25 11 -7 33 -16 49 -19 16 -4 41 -16 54 -27 14 -10 31 -19 39 -19 7 0 26 -8
41 -18 46 -30 66 -42 98 -57 17 -7 36 -21 44 -29 7 -9 17 -16 22 -16 14 0 51
-30 161 -132 119 -110 204 -213 241 -293 15 -33 37 -78 47 -100 10 -22 23 -58
29 -80 5 -22 16 -49 24 -60 9 -11 16 -36 16 -55 0 -20 6 -44 14 -55 23 -35 38
-199 31 -345 -4 -74 -6 -154 -6 -177 1 -30 -4 -45 -16 -51 -12 -7 -16 -21 -15
-50 2 -25 -3 -43 -13 -52 -8 -7 -23 -38 -32 -69 -22 -76 -51 -142 -68 -155 -8
-6 -30 -49 -51 -95 -20 -47 -50 -99 -68 -116 -47 -48 -76 -85 -76 -100 0 -7
-7 -19 -17 -26 -24 -20 -153 -176 -153 -186 -1 -15 -58 -72 -89 -87 -16 -9
-34 -22 -38 -29 -11 -17 -95 -57 -120 -57 -11 0 -32 -9 -46 -20 -14 -11 -36
-20 -50 -20 -14 0 -27 -6 -30 -12 -6 -17 15 -58 42 -82 12 -11 21 -25 21 -31
0 -7 26 -40 57 -74 53 -56 60 -61 100 -61 24 0 60 -9 80 -20 21 -11 49 -20 63
-20 14 0 36 -9 50 -20 14 -11 37 -20 51 -20 15 0 38 -9 52 -20 14 -11 38 -20
54 -21 15 0 55 -16 88 -34 33 -19 80 -44 104 -55 108 -50 310 -248 325 -316 4
-18 16 -40 27 -50 11 -10 19 -30 19 -48 0 -17 7 -44 16 -61 27 -50 64 -197 64
-255 1 -30 5 -75 11 -100 23 -108 27 -162 18 -222 -24 -154 -37 -277 -32 -296
3 -13 -3 -32 -16 -48 -14 -18 -21 -41 -21 -69 0 -29 -6 -47 -20 -60 -13 -12
-20 -31 -20 -55 0 -26 -7 -42 -25 -58 -14 -12 -25 -31 -25 -41 0 -22 -58 -148
-71 -157 -5 -3 -9 -12 -9 -19 0 -8 -18 -41 -40 -72 -22 -32 -40 -67 -40 -79 0
-22 -48 -87 -182 -248 -46 -54 -87 -106 -92 -115 -13 -25 -109 -121 -121 -121
-5 0 -30 -19 -55 -43 -67 -62 -136 -117 -147 -117 -6 0 -26 -12 -45 -27 -19
-16 -50 -36 -69 -45 -228 -112 -332 -148 -426 -148 -40 -1 -78 -7 -93 -15 -14
-8 -36 -14 -50 -15 -26 0 -151 38 -185 57 -11 6 -36 14 -55 18 -19 4 -48 15
-65 25 -32 19 -106 32 -122 21 -16 -10 -22 -99 -8 -111 7 -6 16 -22 19 -36 4
-13 20 -46 36 -73 17 -26 30 -53 30 -58 0 -5 23 -32 52 -59 29 -27 78 -74 110
-105 31 -31 85 -80 119 -110 35 -30 75 -71 90 -93 16 -21 104 -117 197 -215
174 -181 222 -234 222 -245 0 -7 71 -116 119 -181 16 -22 37 -58 48 -80 19
-40 28 -57 53 -105 25 -47 29 -55 45 -90 24 -49 75 -200 75 -220 0 -9 7 -31
16 -49 56 -112 -28 -440 -153 -598 -18 -23 -33 -46 -33 -52 0 -16 -179 -213
-212 -233 -15 -10 -28 -22 -28 -27 0 -4 -21 -18 -47 -30 -91 -42 -136 -68
-145 -84 -4 -9 -25 -19 -46 -23 -20 -4 -48 -14 -61 -22 -13 -9 -44 -19 -70
-23 -25 -3 -80 -14 -121 -24 -104 -24 -550 -23 -655 1 -38 9 -110 20 -158 25
-48 5 -104 16 -124 24 -19 8 -44 15 -56 15 -23 0 -170 46 -207 65 -14 7 -41
16 -60 20 -19 4 -42 14 -51 22 -9 7 -34 17 -55 20 -22 3 -50 14 -63 25 -13 10
-33 18 -45 18 -11 0 -34 7 -49 15 -16 8 -47 20 -70 26 -23 6 -49 17 -57 24 -8
7 -29 16 -47 20 -17 3 -37 12 -43 20 -6 8 -26 17 -43 21 -18 3 -48 15 -67 24
-36 19 -79 38 -140 65 -19 8 -42 19 -50 24 -8 5 -26 14 -40 20 -14 6 -32 15
-40 20 -8 5 -26 14 -40 20 -14 6 -32 15 -40 20 -8 5 -26 14 -40 20 -14 6 -43
22 -65 36 -22 13 -51 29 -65 36 -14 6 -32 15 -40 20 -8 5 -31 18 -50 29 -19
12 -53 32 -75 45 -22 13 -47 27 -55 31 -8 4 -58 35 -110 68 -52 34 -102 66
-111 71 -10 6 -38 25 -63 43 -26 17 -49 32 -52 32 -3 0 -30 20 -61 45 -30 25
-59 45 -63 45 -9 0 -62 35 -132 87 -89 67 -214 161 -261 198 -29 22 -64 48
-80 58 -15 10 -49 37 -75 61 -51 47 -174 155 -286 252 -90 78 -320 319 -358
376 -31 46 -135 158 -147 158 -14 0 -41 59 -41 91 0 18 7 40 16 50 19 21 11
39 -19 39 -12 0 -31 7 -41 15 -33 25 -73 19 -92 -15 -10 -16 -29 -34 -43 -41
-14 -6 -56 -43 -93 -83 -62 -65 -168 -173 -221 -225 -12 -11 -69 -69 -125
-128 -328 -342 -916 -912 -1096 -1063 -120 -101 -346 -310 -346 -321 0 -5 -15
-16 -32 -25 -18 -9 -76 -57 -130 -105 -53 -49 -108 -91 -122 -95 -14 -3 -32
-17 -41 -30 -8 -13 -30 -30 -48 -37 -17 -8 -50 -29 -73 -48 -23 -19 -60 -47
-83 -64 -23 -16 -79 -58 -123 -92 -44 -35 -88 -63 -97 -63 -10 0 -26 -9 -36
-20 -10 -11 -23 -20 -29 -20 -6 0 -38 -23 -70 -50 -33 -27 -71 -55 -85 -62
-59 -30 -177 -102 -186 -115 -10 -14 -54 -40 -115 -68 -19 -9 -46 -27 -60 -40
-25 -23 -48 -36 -165 -93 -33 -16 -69 -39 -79 -50 -11 -12 -26 -22 -35 -22 -9
-1 -41 -16 -71 -35 -30 -19 -66 -40 -80 -46 -47 -21 -125 -60 -229 -115 -57
-30 -113 -54 -124 -54 -12 0 -30 -8 -41 -19 -12 -10 -44 -26 -73 -35 -29 -10
-67 -28 -86 -40 -18 -12 -48 -26 -66 -29 -18 -4 -44 -16 -58 -27 -14 -11 -37
-20 -52 -20 -14 0 -46 -9 -70 -20 -24 -11 -48 -20 -53 -20 -5 0 -21 -9 -35
-20 -14 -11 -37 -20 -52 -20 -14 0 -40 -9 -58 -19 -17 -11 -49 -23 -70 -27
-21 -4 -54 -15 -73 -25 -19 -11 -45 -19 -57 -19 -12 0 -24 -4 -28 -9 -3 -5
-28 -17 -56 -26 -28 -10 -63 -24 -78 -31 -14 -8 -37 -14 -51 -14 -14 0 -35 -7
-47 -15 -12 -8 -45 -20 -74 -25 -29 -6 -60 -17 -69 -25 -9 -8 -29 -15 -44 -15
-15 0 -39 -6 -54 -14 -15 -8 -46 -17 -67 -21 -22 -4 -65 -15 -95 -25 -30 -10
-77 -20 -103 -23 -26 -2 -56 -12 -65 -20 -9 -8 -44 -18 -77 -22 -33 -5 -76
-16 -95 -26 -19 -11 -50 -19 -68 -19 -18 0 -47 -7 -63 -16 -17 -8 -63 -18
-102 -21 -48 -4 -80 -12 -96 -24 -14 -11 -40 -19 -63 -19 -21 0 -64 -9 -95
-20 -32 -11 -70 -20 -86 -20 -15 0 -37 -5 -47 -10 -11 -6 -48 -13 -82 -15
-115 -10 -292 -33 -368 -49 -41 -9 -102 -16 -135 -16 -33 0 -92 -8 -130 -19
-45 -12 -124 -21 -219 -26 -81 -3 -160 -11 -175 -17 -51 -20 -527 -30 -1145
-24 -513 5 -624 9 -649 21 -20 10 -82 16 -200 21 -103 4 -188 12 -212 20 -22
8 -103 19 -180 25 -86 7 -146 16 -155 24 -9 8 -60 15 -130 20 -63 4 -127 13
-141 20 -14 8 -61 17 -105 21 -43 4 -91 13 -106 20 -15 8 -62 17 -105 20 -45
4 -89 13 -103 22 -14 9 -55 19 -93 23 -41 4 -74 13 -85 23 -13 11 -37 16 -73
16 -35 0 -67 7 -90 19 -20 11 -64 23 -98 27 -33 3 -66 12 -72 20 -6 7 -36 16
-67 20 -31 4 -73 15 -92 25 -19 11 -52 19 -73 19 -24 0 -49 8 -64 20 -15 12
-41 20 -63 20 -21 0 -48 8 -61 19 -13 10 -47 20 -77 23 -29 3 -60 12 -70 22
-10 9 -32 16 -48 16 -16 0 -51 12 -79 25 -27 14 -60 25 -72 25 -13 0 -37 9
-55 20 -18 11 -46 20 -61 20 -16 0 -40 9 -54 20 -14 11 -39 20 -55 20 -17 0
-41 9 -55 20 -15 12 -41 20 -63 20 -22 0 -48 8 -63 20 -14 11 -40 20 -60 20
-19 0 -45 9 -60 20 -14 11 -34 20 -44 20 -10 0 -34 9 -54 19 -20 11 -53 23
-73 27 -21 3 -40 13 -43 20 -3 7 -21 16 -41 20 -21 3 -49 14 -64 25 -15 10
-40 19 -56 19 -16 0 -37 9 -47 20 -10 11 -28 20 -40 20 -12 0 -30 9 -40 20
-10 11 -28 20 -40 20 -12 0 -30 8 -39 19 -9 10 -31 21 -47 25 -17 3 -42 15
-56 26 -14 11 -33 20 -43 20 -9 0 -25 9 -35 20 -10 11 -27 20 -37 20 -11 0
-31 9 -45 20 -14 11 -33 20 -43 20 -9 0 -25 9 -35 20 -10 11 -28 20 -41 20
-13 0 -25 4 -29 9 -7 13 -94 71 -104 71 -5 0 -19 9 -33 19 -13 11 -36 23 -51
26 -14 4 -33 15 -43 26 -9 10 -24 19 -32 19 -9 0 -25 9 -36 19 -18 17 -52 36
-178 102 -16 8 -33 20 -36 26 -4 6 -23 18 -42 27 -41 18 -62 31 -110 67 -19
15 -64 42 -100 62 -36 19 -99 58 -140 87 -85 58 -147 100 -171 115 -45 28 -77
51 -104 75 -16 14 -41 34 -55 43 -14 9 -50 34 -80 54 -76 52 -320 243 -392
308 -13 11 -59 48 -103 83 -90 71 -125 114 -125 153 0 16 -14 41 -38 66 -36
39 -39 40 -122 48 -47 4 -105 8 -130 9 -85 5 -222 36 -248 56 -14 11 -42 23
-63 26 -21 4 -48 17 -60 30 -12 13 -38 29 -57 35 -44 15 -171 143 -215 219
-31 54 -32 57 -30 170 1 104 4 121 31 180 17 36 41 75 55 88 13 13 33 41 42
63 17 36 24 41 78 56 47 13 64 24 79 48 27 45 20 68 -27 83 -22 7 -62 16 -90
18 -27 3 -111 17 -185 31 -162 30 -255 72 -400 179 -105 78 -185 159 -244 250
-21 32 -47 70 -56 84 -9 14 -20 35 -24 47 -4 12 -18 28 -31 37 -16 11 -25 26
-25 43 0 15 -7 34 -16 44 -9 10 -19 39 -21 63 -3 25 -12 51 -19 57 -18 15 -18
67 0 110 7 19 16 61 20 94 4 32 13 66 20 75 8 8 17 36 21 62 4 26 16 54 26 64
10 9 19 27 19 39 0 12 9 30 20 40 11 10 20 28 20 40 0 12 9 30 19 39 11 10 22
29 26 44 3 14 17 39 30 56 36 46 83 107 114 148 15 20 50 53 77 74 27 20 68
53 90 73 75 65 96 81 106 81 5 0 21 9 35 20 14 11 38 20 53 20 15 0 35 8 44
19 13 14 37 21 94 26 42 3 96 13 120 21 59 19 112 17 147 -6 17 -11 44 -20 60
-20 19 0 54 -16 95 -45 36 -25 69 -45 74 -45 4 0 31 -18 58 -40 28 -22 53 -40
57 -41 3 0 31 -2 61 -4 30 -2 65 -5 78 -7 18 -2 29 6 48 39 l25 42 -25 22
c-14 13 -26 28 -26 34 0 23 -70 104 -117 135 -48 33 -122 64 -131 56 -7 -8
-103 50 -140 85 l-35 33 6 116 c4 74 13 138 27 178 11 35 20 82 20 104 0 25 8
49 20 65 13 17 20 41 20 72 0 27 8 58 19 77 10 17 23 51 29 75 11 45 39 132
52 160 4 8 22 51 39 95 30 75 64 152 83 184 4 8 13 26 19 40 34 81 149 292
174 322 15 17 33 49 42 70 8 21 18 38 22 38 9 0 88 122 101 155 9 25 70 115
100 150 10 11 24 32 31 46 36 68 91 158 104 169 8 7 15 19 15 26 0 8 18 38 41
67 22 28 62 81 90 116 27 35 49 69 49 75 0 7 25 36 55 66 30 30 55 59 55 64 0
5 21 33 48 62 26 29 72 83 102 120 157 192 595 642 793 814 54 47 126 111 161
143 34 31 66 57 70 57 4 0 39 28 77 62 38 35 87 74 107 88 21 14 58 41 82 61
25 19 58 44 74 55 16 10 39 26 51 34 13 8 40 27 61 43 66 47 175 117 183 117
4 0 18 11 31 25 13 14 34 25 46 25 13 0 29 8 36 18 7 10 33 28 58 41 25 13 54
31 65 41 11 10 60 38 108 64 49 25 100 55 114 66 14 11 33 20 43 20 9 0 25 9
35 20 10 11 23 20 30 20 7 0 20 9 30 20 10 11 30 20 44 20 14 0 51 17 82 39
31 21 66 42 79 46 13 4 37 16 54 26 17 11 39 19 49 19 11 0 30 9 44 20 14 11
35 20 47 20 12 0 29 9 39 20 9 11 27 20 40 20 13 0 32 9 42 20 10 11 28 20 39
20 12 0 35 9 51 20 17 11 39 20 49 20 11 0 27 7 37 16 10 9 37 20 60 25 23 5
53 19 67 29 13 11 36 20 49 20 13 0 41 8 61 19 37 18 95 39 182 65 46 14 75
24 165 56 28 10 70 22 95 25 25 4 52 13 60 20 8 7 40 16 70 20 30 4 65 13 77
21 12 7 41 17 65 20 24 4 57 16 73 26 17 10 49 18 73 18 23 0 59 8 80 19 20
10 68 21 107 25 38 4 76 13 85 20 8 8 47 17 85 21 39 3 79 12 90 19 11 7 56
16 100 20 44 4 90 14 101 21 12 8 57 17 100 21 44 3 93 13 109 21 17 8 70 19
118 24 48 5 100 15 115 23 15 7 67 16 115 20 48 3 98 12 110 20 13 8 66 17
127 21 58 3 114 12 125 19 11 8 72 16 140 20 66 4 134 13 150 21 18 8 98 18
197 24 93 6 178 16 190 22 13 7 89 13 187 16 240 7 430 19 476 32 65 17 1090
15 1196 -3 46 -8 176 -17 289 -21 249 -7 317 -13 344 -27 12 -6 48 -13 81 -14
140 -6 251 -18 270 -30 12 -7 75 -15 150 -19 82 -5 135 -12 145 -20 9 -8 59
-16 125 -20 61 -4 122 -13 137 -20 15 -7 63 -16 105 -20 43 -4 89 -13 103 -20
14 -7 54 -16 90 -20 36 -4 80 -14 99 -23 19 -9 42 -17 50 -17 45 -5 112 -19
163 -36 32 -10 83 -19 115 -19 55 0 197 -34 269 -65 18 -8 49 -17 70 -21 22
-4 55 -14 74 -22 19 -8 55 -20 80 -27 68 -20 143 -48 265 -100 61 -26 124 -51
141 -56 18 -5 37 -16 44 -24 7 -8 23 -15 37 -15 13 0 38 -7 55 -16 17 -9 51
-22 77 -29 63 -18 109 -34 156 -56 22 -10 54 -21 70 -25 17 -4 39 -13 50 -20
11 -8 29 -14 41 -14 12 0 33 -9 47 -20 14 -11 31 -20 39 -20 7 0 34 -11 60
-25 26 -14 56 -25 66 -25 10 0 29 -9 42 -20 13 -11 33 -20 45 -20 12 0 33 -8
46 -18 13 -10 44 -26 69 -34 64 -22 191 -80 220 -101 13 -9 34 -17 47 -17 12
0 25 -5 29 -11 3 -6 25 -19 49 -29 24 -10 46 -23 49 -29 4 -6 18 -11 30 -11
13 0 35 -9 49 -20 14 -11 29 -20 35 -20 5 0 20 -8 33 -18 13 -11 38 -22 54
-26 17 -4 37 -13 45 -21 8 -7 59 -36 112 -64 54 -28 120 -67 148 -86 27 -19
56 -35 63 -35 8 0 26 -11 41 -25 15 -14 33 -25 40 -25 7 0 21 -9 31 -20 10
-11 23 -20 30 -20 6 0 29 -15 51 -34 22 -19 57 -37 77 -41 20 -4 41 -13 48
-21 6 -8 18 -14 25 -14 8 0 19 -11 24 -25 6 -17 17 -25 33 -25 14 0 41 -15 63
-35 21 -20 49 -38 62 -42 13 -3 34 -16 47 -29 26 -26 45 -30 61 -14 7 7 10 -1
10 -23 0 -47 37 -95 78 -103 56 -10 70 -3 77 39 3 22 22 56 46 84 22 27 52 71
68 98 16 28 40 66 54 85 14 19 37 57 51 83 14 27 63 97 110 155 94 116 469
502 527 542 20 14 62 46 92 72 31 26 91 66 135 88 44 23 91 50 104 61 14 10
30 19 36 19 6 0 40 26 76 58 36 32 100 84 142 115 42 32 99 77 125 101 27 24
64 51 83 60 19 9 47 24 61 33 14 10 39 27 55 38 16 10 44 32 63 48 19 16 50
36 68 44 19 7 36 20 40 28 3 8 15 15 28 15 12 0 44 17 71 38 27 21 64 44 82
51 17 8 32 17 32 22 0 5 8 9 19 9 10 0 40 17 67 39 27 21 65 46 84 55 19 8 42
19 50 24 8 5 22 13 31 18 9 5 40 26 70 47 30 20 62 37 72 37 10 0 30 9 44 20
14 11 31 20 38 20 7 0 18 7 25 15 17 21 107 65 132 65 11 0 33 11 50 25 16 14
35 25 43 25 7 0 18 6 24 14 7 8 30 17 52 21 21 4 42 12 46 19 13 19 113 66
142 66 16 0 36 9 46 20 10 11 25 20 34 20 9 0 31 9 49 20 18 11 41 20 51 20
10 0 30 9 44 20 14 11 38 20 55 20 16 0 40 8 53 19 13 10 35 22 49 26 14 4 39
16 56 26 17 11 44 19 59 19 15 0 38 9 52 20 15 12 41 20 63 20 24 0 43 7 55
20 14 15 31 20 72 20 40 0 58 5 73 20 16 16 33 20 94 20 64 0 79 3 100 23 23
21 34 23 183 26 87 1 159 4 161 5 2 3 98 0 283 -7z m-17241 -223 c0 -9 14 -21
30 -27 17 -6 30 -15 30 -18 0 -4 26 -22 58 -40 31 -18 60 -38 64 -45 4 -6 23
-15 41 -18 18 -3 40 -15 50 -26 9 -11 25 -20 36 -20 10 0 29 -8 42 -19 13 -10
38 -22 56 -25 17 -4 34 -13 37 -21 3 -8 22 -17 43 -21 21 -4 44 -15 51 -26 8
-11 25 -18 46 -18 19 0 39 -6 45 -14 6 -7 31 -16 55 -18 25 -3 57 -15 72 -27
16 -12 41 -21 63 -21 20 0 51 -9 69 -20 18 -11 46 -20 62 -20 17 0 47 -9 67
-20 21 -11 54 -20 73 -20 19 0 55 -9 79 -20 24 -11 55 -20 70 -20 56 0 144
-28 169 -54 22 -22 24 -28 13 -48 -24 -46 -38 -68 -54 -86 -10 -10 -17 -25
-17 -33 0 -8 -9 -27 -20 -44 -11 -16 -20 -37 -20 -46 0 -9 -9 -28 -20 -42 -13
-16 -20 -40 -20 -66 0 -31 -3 -39 -15 -35 -20 8 -29 -34 -20 -93 6 -40 5 -45
-10 -39 -12 4 -21 -5 -36 -38 -14 -32 -28 -47 -49 -55 -17 -5 -38 -17 -46 -26
-8 -8 -28 -15 -43 -15 -15 0 -38 -9 -51 -20 -13 -11 -33 -20 -45 -20 -12 0
-33 -9 -47 -19 -13 -11 -38 -23 -54 -27 -16 -4 -40 -15 -53 -26 -13 -10 -29
-18 -36 -18 -7 0 -18 -7 -25 -15 -7 -8 -20 -15 -29 -15 -9 0 -27 -7 -41 -15
-14 -8 -75 -39 -137 -70 -61 -31 -117 -62 -123 -70 -7 -8 -20 -15 -30 -15 -9
0 -25 -9 -35 -20 -10 -11 -28 -20 -41 -20 -12 0 -30 -8 -39 -17 -16 -16 -56
-40 -100 -61 -11 -5 -29 -19 -39 -31 -11 -11 -29 -21 -40 -21 -12 0 -29 -9
-39 -20 -9 -11 -22 -20 -29 -21 -7 0 -33 -16 -58 -35 -25 -18 -56 -39 -70 -45
-14 -5 -46 -28 -72 -50 -26 -21 -55 -39 -66 -39 -26 0 -72 37 -72 59 0 10 -10
27 -22 38 -13 11 -38 39 -57 62 -18 23 -47 49 -63 57 -24 13 -29 20 -26 47 3
27 7 32 33 35 17 2 39 11 50 20 34 29 84 62 93 62 9 0 72 74 72 85 0 4 9 18
20 32 25 32 27 119 4 178 -9 22 -20 60 -25 84 -5 25 -16 52 -24 61 -8 9 -15
26 -15 37 0 11 -9 32 -20 46 -11 14 -20 39 -20 55 0 16 -7 35 -16 43 -8 7 -22
25 -30 41 -8 15 -28 35 -44 43 -34 17 -39 49 -15 81 8 10 15 29 15 42 0 12 9
30 20 39 11 10 20 29 20 44 0 14 8 37 19 50 10 13 22 38 25 56 4 17 14 37 21
43 8 7 17 28 21 49 4 20 15 50 25 67 11 17 19 44 19 59 0 15 9 38 20 52 11 14
20 38 20 53 0 15 9 35 20 45 11 10 20 28 20 40 0 12 9 34 20 48 11 14 20 40
20 59 0 46 15 58 72 58 37 0 48 -4 48 -16z m1365 -1034 c0 -19 -7 -26 -36 -35
-20 -5 -44 -16 -53 -24 -23 -19 -29 -9 -15 23 7 14 20 26 31 26 11 0 18 7 18
19 0 13 7 18 28 17 22 -1 27 -6 27 -26z m-1890 -155 c42 -90 63 -202 45 -245
-13 -32 -65 -76 -120 -101 -19 -9 -82 -62 -139 -117 -90 -87 -103 -103 -97
-125 3 -15 44 -54 108 -105 57 -44 109 -87 116 -94 43 -44 102 -124 102 -139
0 -10 -24 -34 -52 -55 -29 -21 -77 -61 -106 -89 -30 -27 -61 -54 -70 -59 -9
-5 -45 -34 -79 -65 -34 -31 -106 -94 -159 -141 -151 -131 -520 -504 -644 -649
-25 -29 -73 -84 -107 -121 -35 -38 -63 -73 -63 -78 0 -6 -16 -27 -35 -48 -19
-22 -47 -57 -62 -79 -15 -22 -45 -61 -68 -86 -22 -26 -58 -72 -80 -103 -22
-32 -51 -70 -65 -86 -14 -16 -49 -61 -79 -99 -30 -39 -61 -72 -70 -72 -106
-10 -121 -10 -231 -5 -91 4 -215 22 -240 36 -10 6 -39 10 -65 10 -26 0 -62 8
-83 20 -20 10 -45 21 -54 24 -26 8 -23 58 5 83 12 11 33 24 47 28 14 4 41 22
62 39 60 51 110 86 124 86 7 0 45 27 85 60 39 33 76 60 81 60 10 0 46 27 121
91 23 20 67 52 97 72 30 20 78 57 105 83 28 26 73 65 100 86 173 133 605 573
710 723 17 24 46 61 66 82 20 22 42 50 49 63 7 14 18 30 24 36 6 6 20 23 31
38 11 16 29 40 40 54 11 14 25 36 30 48 6 12 25 40 43 61 30 35 47 60 127 188
17 26 49 77 73 112 23 36 42 70 42 77 0 8 8 24 19 37 10 13 21 34 25 45 4 12
15 29 26 39 11 10 20 28 20 39 0 12 6 30 14 41 7 11 17 31 21 45 4 14 13 32
20 40 23 27 105 190 105 208 0 24 19 42 46 42 15 0 27 -11 39 -35z m12625
-1150 c-7 -8 -16 -15 -21 -15 -5 0 -9 7 -9 15 0 9 9 15 21 15 18 0 19 -2 9
-15z m-15110 -1585 c0 -5 -5 -10 -11 -10 -5 0 -7 5 -4 10 3 6 8 10 11 10 2 0
4 -4 4 -10z m21928 -262 c2 -13 -3 -18 -17 -18 -12 0 -21 -4 -21 -8 0 -5 -7
-9 -15 -9 -18 0 -20 28 -3 45 17 17 52 11 56 -10z m-651 -3714 c-3 -3 -12 -4
-19 -1 -8 3 -5 6 6 6 11 1 17 -2 13 -5z m-4716 -687 c-8 -8 -11 -7 -11 4 0 20
13 34 18 19 3 -7 -1 -17 -7 -23z m-1593 -1329 c15 -15 16 -253 1 -318 -23
-100 -88 -199 -132 -201 -137 -5 -296 -41 -338 -75 -17 -15 -134 -64 -150 -64
-7 0 -33 -10 -58 -21 -25 -12 -57 -27 -70 -33 -28 -13 -44 -50 -35 -80 8 -25
79 -149 110 -191 13 -16 41 -65 63 -109 22 -43 46 -86 54 -95 7 -9 26 -56 41
-106 15 -49 34 -110 42 -135 8 -25 14 -77 14 -116 0 -108 -36 -162 -167 -251
-46 -31 -109 -63 -125 -63 -7 0 -25 -6 -39 -14 -60 -31 -157 -39 -363 -31
-371 16 -390 14 -466 -34 -28 -18 -105 -50 -145 -61 -22 -6 -65 -23 -95 -38
-66 -32 -72 -53 -36 -115 14 -24 26 -54 26 -66 0 -12 8 -38 19 -59 10 -20 21
-55 25 -77 4 -22 14 -60 21 -85 46 -152 58 -202 70 -288 8 -53 11 -119 8 -147
-5 -48 -48 -146 -97 -223 -63 -99 -250 -278 -323 -308 -48 -21 -139 -43 -176
-44 -15 0 -40 -9 -55 -20 -24 -18 -34 -19 -79 -11 -36 7 -62 7 -84 -1 -47 -16
-592 -2 -628 17 -15 7 -65 16 -111 20 -47 4 -94 13 -105 20 -11 7 -50 16 -85
20 -36 4 -74 12 -85 19 -11 6 -49 16 -85 22 -73 13 -146 37 -202 65 -20 11
-50 19 -65 19 -16 0 -39 8 -52 17 -14 9 -47 20 -74 24 -27 5 -57 15 -67 24 -9
8 -26 15 -37 15 -11 0 -32 9 -46 20 -16 13 -40 20 -66 20 -30 0 -44 5 -53 20
-8 12 -28 23 -50 26 -20 4 -45 15 -54 25 -9 11 -24 19 -33 19 -24 0 -114 44
-130 63 -7 10 -26 17 -42 17 -18 0 -32 7 -39 20 -6 11 -17 20 -25 20 -17 0
-71 36 -103 68 -15 15 -30 21 -42 17 -13 -4 -24 2 -35 19 -10 14 -38 38 -65
53 -65 38 -140 109 -140 133 0 24 31 57 66 70 14 6 54 10 88 10 50 0 67 4 81
20 14 16 31 20 79 20 39 0 77 8 105 20 24 11 55 20 70 20 15 0 54 9 87 19 32
11 79 22 104 26 25 4 56 16 69 26 16 13 40 19 72 19 30 0 64 8 86 20 21 11 53
20 71 20 18 0 50 9 72 20 22 11 50 20 64 20 14 0 40 9 58 19 18 10 54 22 79
25 26 4 55 13 65 21 11 8 28 15 39 15 12 0 37 8 58 19 20 10 52 22 70 25 18 3
51 15 72 26 22 11 53 20 71 20 17 0 37 7 44 15 7 8 28 17 49 21 20 4 48 15 63
25 14 11 35 19 46 19 10 0 31 9 45 20 14 11 37 20 52 20 15 0 38 9 52 20 14
11 37 20 52 20 14 0 40 9 57 19 17 10 46 22 65 26 19 4 45 16 58 26 13 11 31
19 40 19 17 0 94 37 132 63 13 10 33 17 45 17 12 0 27 7 34 15 7 8 17 15 23
15 8 0 118 52 167 79 8 4 33 17 54 27 22 10 55 31 74 47 19 15 44 27 56 27 12
0 44 15 71 33 28 18 81 48 118 67 38 19 73 41 79 47 6 7 15 13 20 13 6 0 23
11 40 25 16 14 36 25 43 25 7 0 48 24 90 53 42 28 84 57 94 63 9 6 43 28 76
49 112 71 139 90 180 127 22 21 47 38 56 38 8 0 40 18 69 40 29 22 57 40 61
40 5 0 31 19 58 43 65 55 139 110 176 131 73 41 117 75 218 170 29 27 65 57
81 67 17 10 102 87 190 171 87 84 198 185 245 225 91 76 201 183 201 196 0 12
45 8 58 -5z"/>
<path d="M17070 29845 c-25 -24 -97 -95 -160 -158 -127 -125 -166 -168 -273
-304 -109 -140 -147 -192 -147 -201 0 -5 -18 -28 -40 -52 -59 -64 -49 -91 21
-54 17 8 42 14 57 13 77 -6 87 -1 122 54 19 28 46 68 62 87 16 19 58 71 94
115 90 112 175 212 277 326 53 59 87 106 87 119 0 22 -39 100 -49 100 -4 0
-26 -20 -51 -45z"/>
<path d="M18265 28790 c-62 -25 -137 -62 -149 -71 -16 -14 -83 -57 -114 -74
-15 -8 -54 -35 -87 -60 -33 -24 -84 -58 -112 -75 -29 -17 -56 -37 -60 -44 -5
-8 -28 -23 -52 -36 -49 -24 -171 -117 -171 -130 0 -4 -27 -27 -60 -51 -74 -53
-246 -217 -237 -225 3 -4 20 -1 38 5 18 6 47 11 65 11 18 0 36 5 39 10 3 6 -4
10 -15 10 -16 0 -20 4 -16 16 3 9 6 18 6 20 0 2 9 4 20 4 11 0 20 -7 20 -15 0
-8 7 -15 15 -15 22 0 87 31 115 55 14 12 46 29 72 39 26 9 64 31 85 48 21 17
57 39 81 49 23 10 42 23 42 28 0 6 29 26 65 46 36 20 65 41 65 45 0 5 9 11 20
15 11 3 42 24 69 45 27 22 60 42 73 45 13 4 41 19 63 35 22 15 86 52 143 80
57 28 102 55 100 59 -43 101 -63 141 -72 144 -6 2 -29 -4 -51 -13z m-775 -620
c0 -5 -7 -10 -15 -10 -8 0 -15 5 -15 10 0 6 7 10 15 10 8 0 15 -4 15 -10z
m-70 -40 c0 -12 -28 -25 -36 -17 -9 9 6 27 22 27 8 0 14 -5 14 -10z"/>
<path d="M13423 28072 c-18 -9 -35 -23 -38 -33 -3 -9 -17 -20 -30 -23 -14 -4
-25 -13 -25 -21 0 -22 59 -20 67 3 9 22 23 32 51 32 35 0 29 -36 -9 -49 -27
-9 -30 -13 -19 -26 7 -8 24 -15 37 -15 14 0 38 -11 55 -25 16 -14 38 -25 48
-25 10 0 22 -5 26 -11 3 -6 25 -19 48 -28 57 -25 264 -231 297 -296 14 -27 32
-61 42 -75 38 -58 37 -247 -2 -293 -23 -29 -7 -48 36 -41 21 3 83 6 138 7 99
2 100 2 103 27 2 14 8 30 13 36 5 7 9 25 8 40 -1 16 3 42 10 57 15 38 14 78
-3 102 -7 11 -16 39 -19 62 -3 23 -14 54 -26 69 -12 15 -21 33 -21 40 0 21
-88 204 -98 204 -6 0 -26 25 -46 55 -21 30 -48 63 -62 72 -14 10 -52 39 -86
66 -37 29 -71 47 -87 47 -15 0 -44 9 -66 20 -27 14 -59 20 -100 20 -34 0 -66
5 -73 12 -9 9 -18 8 -37 -2 -21 -11 -32 -11 -59 -2 -18 7 -34 11 -37 11 -2 -1
-19 -9 -36 -17z"/>
<path d="M11537 27603 c-18 -17 -4 -33 33 -39 45 -7 48 -13 20 -37 -13 -11
-20 -29 -20 -52 0 -38 -14 -47 -23 -15 -3 11 -13 23 -24 27 -10 4 -23 14 -30
22 -9 12 -15 13 -23 5 -9 -9 -6 -21 13 -50 13 -22 32 -46 41 -54 10 -7 28 -35
42 -61 13 -26 29 -52 36 -56 19 -12 56 -109 84 -219 13 -54 28 -102 34 -108 5
-5 10 -20 10 -32 0 -32 27 -51 51 -36 10 7 29 12 42 12 13 0 28 5 33 10 11 11
44 3 44 -10 0 -5 -5 -12 -10 -15 -13 -8 6 -35 24 -35 7 0 23 -11 36 -25 13
-14 31 -25 40 -25 9 0 25 -9 35 -20 10 -11 28 -20 41 -20 13 0 28 -9 34 -20 6
-11 22 -23 35 -26 13 -3 29 -12 35 -19 6 -8 24 -17 40 -20 16 -3 34 -13 41
-21 6 -8 20 -14 30 -14 10 0 24 -8 31 -18 7 -10 39 -31 71 -47 31 -15 57 -32
57 -37 0 -4 18 -19 40 -33 64 -40 239 -204 256 -239 8 -17 28 -50 44 -73 43
-59 90 -151 90 -177 0 -11 8 -34 17 -51 18 -34 41 -222 37 -305 -8 -163 -18
-237 -36 -265 -10 -16 -18 -38 -18 -48 0 -10 -11 -42 -24 -70 -13 -29 -27 -66
-31 -83 -5 -27 -3 -32 17 -36 59 -10 214 6 246 26 7 4 12 17 12 29 0 12 9 36
20 52 11 17 20 36 20 44 0 8 9 32 19 55 11 23 29 105 41 182 24 148 23 154 -9
369 -13 84 -52 198 -94 275 -19 36 -38 80 -42 97 -4 18 -11 35 -16 39 -5 3
-16 20 -24 37 -36 77 -174 237 -245 283 -19 12 -48 35 -65 51 -33 31 -134 99
-180 120 -16 7 -37 17 -45 22 -42 26 -109 51 -135 50 -61 -1 -186 14 -191 22
-3 5 -18 9 -34 9 -16 0 -40 4 -54 9 -16 7 -35 6 -56 -2 -38 -14 -47 -4 -55 63
-19 149 -48 242 -88 289 -8 9 -17 32 -21 52 -4 21 -13 42 -21 49 -8 7 -15 19
-15 26 0 7 -11 21 -26 30 -14 9 -31 29 -39 43 -24 46 -73 91 -98 91 -14 0 -30
7 -37 15 -13 15 -51 20 -63 8z m123 -273 c0 -11 -7 -20 -15 -20 -8 0 -15 9
-15 20 0 11 7 20 15 20 8 0 15 -9 15 -20z m368 -443 c18 -14 -3 -27 -45 -27
-28 0 -33 3 -33 25 0 22 3 24 33 18 17 -3 38 -10 45 -16z"/>
<path d="M11425 27560 c-7 -12 2 -30 16 -30 12 0 12 27 0 35 -5 3 -12 1 -16
-5z"/>
<path d="M18075 27033 c-66 -2 -115 -11 -185 -34 -86 -27 -101 -36 -164 -95
-52 -49 -66 -68 -58 -76 9 -9 20 -8 44 3 41 19 326 17 403 -2 69 -17 515 -21
547 -5 30 15 26 56 -12 114 -16 24 -31 49 -32 54 -5 14 -94 26 -248 33 -69 3
-143 7 -165 8 -22 2 -80 2 -130 0z"/>
<path d="M14369 26893 c-16 -7 -29 -16 -29 -21 0 -5 -22 -23 -50 -40 -48 -30
-66 -62 -34 -62 8 0 32 -9 52 -19 20 -11 64 -31 97 -44 81 -33 84 -34 130 -62
22 -13 56 -33 76 -44 19 -11 41 -27 49 -36 7 -9 43 -36 80 -61 36 -24 107 -88
156 -141 49 -53 106 -114 126 -135 20 -21 40 -48 43 -59 4 -12 24 -44 46 -72
21 -29 41 -64 44 -79 4 -14 13 -32 22 -39 16 -14 63 -110 63 -130 0 -6 9 -26
19 -43 22 -36 43 -177 42 -281 -1 -62 -22 -197 -35 -217 -8 -13 -17 -39 -21
-58 -4 -19 -14 -44 -21 -55 -15 -20 -20 -89 -6 -83 46 23 60 33 77 58 11 16
32 35 47 41 16 6 28 18 28 26 0 12 2 12 15 -1 23 -23 18 -34 -17 -38 -24 -2
-34 -9 -36 -23 -2 -11 -11 -26 -20 -33 -14 -11 -8 -12 38 -6 44 6 65 15 103
47 26 22 50 52 54 66 3 14 12 35 19 46 14 22 30 93 46 204 8 52 8 95 0 145
-17 115 -42 217 -57 240 -8 11 -15 27 -15 35 0 22 -166 356 -185 371 -9 8 -28
36 -42 64 -14 27 -40 66 -58 85 -58 64 -212 215 -260 256 -86 73 -244 153
-323 164 -30 5 -58 14 -63 22 -12 19 -162 28 -200 12z m-4 -103 c-5 -8 -11 -8
-17 -2 -6 6 -7 16 -3 22 5 8 11 8 17 2 6 -6 7 -16 3 -22z"/>
<path d="M9493 26649 c-68 -6 -114 -24 -158 -60 -11 -9 -33 -21 -50 -26 -16
-5 -31 -17 -33 -25 -3 -14 11 -16 94 -17 73 0 101 -4 114 -16 9 -9 41 -18 71
-22 30 -3 65 -14 78 -25 13 -10 38 -18 56 -18 19 0 39 -8 50 -20 10 -11 28
-20 40 -20 11 0 36 -11 55 -25 19 -14 43 -25 54 -26 12 0 41 -16 66 -34 25
-19 72 -50 105 -69 33 -20 80 -55 105 -78 25 -24 88 -81 139 -128 51 -47 102
-101 114 -120 11 -19 30 -44 41 -55 27 -27 84 -106 116 -161 14 -24 36 -54 47
-66 12 -13 34 -48 48 -78 14 -30 39 -73 55 -95 16 -22 32 -54 36 -72 3 -17 14
-39 24 -48 11 -10 22 -31 26 -49 3 -17 14 -42 24 -56 9 -14 26 -56 38 -95 12
-38 41 -135 65 -215 25 -80 50 -165 57 -190 21 -72 25 -410 6 -468 -8 -26 -18
-74 -22 -107 -4 -39 -13 -66 -25 -78 -11 -10 -19 -30 -19 -46 0 -15 -9 -36
-20 -46 -11 -10 -20 -29 -20 -42 0 -15 -17 -42 -45 -71 -25 -26 -44 -51 -42
-57 6 -16 214 -6 264 12 41 15 42 15 89 -18 126 -86 208 -198 251 -344 12 -38
33 -108 47 -155 14 -47 26 -99 26 -117 0 -18 7 -58 15 -90 10 -37 15 -105 15
-193 0 -116 -3 -141 -20 -175 -11 -22 -20 -51 -20 -66 0 -15 -6 -32 -13 -38
-16 -13 -53 -128 -44 -137 3 -3 19 3 35 15 32 23 52 27 52 11 0 -15 73 -12 95
4 11 7 35 17 53 21 26 5 37 16 57 56 14 26 25 54 25 61 0 7 10 31 21 53 19 34
22 59 24 200 3 162 -3 222 -43 400 -10 44 -23 91 -29 105 -6 14 -21 59 -33
100 -12 41 -28 84 -34 95 -7 11 -16 33 -20 49 -4 16 -16 41 -27 54 -10 14 -19
32 -19 41 0 30 -58 110 -131 182 -63 62 -115 95 -191 122 -25 9 -23 53 5 124
21 54 22 73 22 298 l0 240 -34 110 c-18 61 -38 128 -44 150 -5 22 -16 55 -23
73 -8 18 -18 50 -23 70 -16 63 -49 151 -66 174 -8 13 -15 32 -15 44 0 12 -9
33 -20 47 -11 14 -27 43 -34 64 -23 64 -85 191 -96 198 -6 3 -24 33 -41 66
-16 33 -45 82 -64 108 -19 27 -35 53 -35 58 0 5 -15 30 -33 54 -18 24 -53 71
-78 103 -70 94 -81 107 -139 164 -72 71 -261 218 -291 227 -13 4 -32 16 -42
26 -10 11 -24 19 -32 19 -14 0 -63 22 -137 61 -20 10 -50 19 -66 19 -16 0 -41
9 -55 20 -19 15 -40 20 -85 20 -40 0 -64 5 -72 15 -20 24 -125 35 -237 24z
m2057 -4059 c0 -5 -4 -10 -10 -10 -5 0 -10 5 -10 10 0 6 5 10 10 10 6 0 10 -4
10 -10z"/>
<path d="M13385 24535 c-19 -20 -35 -40 -35 -45 0 -6 -6 -10 -13 -10 -46 0
-35 -50 21 -102 16 -15 37 -43 46 -62 9 -20 23 -39 30 -43 17 -9 68 -135 87
-213 20 -83 18 -318 -2 -350 -19 -28 -32 -137 -19 -145 5 -3 20 1 33 10 13 8
27 12 31 8 10 -10 86 -4 111 10 13 7 46 40 74 74 l51 61 3 144 c2 181 -7 246
-49 332 -19 39 -34 75 -34 82 0 7 -11 34 -25 60 -14 26 -25 52 -25 58 0 15
-64 83 -121 129 -64 51 -114 52 -164 2z m15 -75 c0 -5 -4 -10 -10 -10 -5 0
-10 5 -10 10 0 6 5 10 10 10 6 0 10 -4 10 -10z m10 -40 c0 -11 -7 -20 -15 -20
-15 0 -21 21 -8 33 12 13 23 7 23 -13z m197 -797 c5 -15 -36 -28 -49 -15 -6 6
-7 15 -3 22 9 14 47 9 52 -7z"/>
<path d="M8755 24480 c-27 -4 -59 -6 -70 -3 -11 2 -34 -3 -50 -11 -17 -9 -37
-16 -45 -16 -8 0 -28 -9 -45 -20 -16 -11 -42 -20 -58 -20 -18 0 -42 -13 -71
-40 -24 -22 -48 -40 -54 -40 -14 0 -125 -128 -146 -167 -9 -18 -16 -40 -16
-50 0 -10 -10 -38 -21 -63 -18 -39 -21 -63 -20 -174 1 -112 4 -132 21 -154 11
-13 20 -33 20 -42 0 -10 27 -59 61 -109 65 -97 89 -116 252 -198 18 -9 78 -16
170 -20 158 -6 285 12 322 47 11 10 44 31 73 47 61 33 166 156 182 215 6 20
17 49 25 65 8 15 15 51 15 78 0 28 7 59 15 69 8 10 11 24 8 30 -4 6 -11 31
-15 56 -26 156 -50 218 -113 290 -27 32 -65 76 -82 98 -20 25 -48 45 -70 52
-21 7 -52 21 -69 31 -17 11 -40 19 -50 19 -11 0 -31 6 -45 14 -38 20 -69 24
-124 16z"/>
<path d="M32860 23334 c-14 -7 -34 -14 -45 -14 -11 0 -33 -9 -50 -20 -16 -11
-38 -20 -48 -20 -16 0 -34 -7 -164 -66 -28 -13 -56 -24 -61 -24 -10 0 -319
-155 -336 -169 -11 -9 -85 -51 -141 -79 -16 -8 -37 -21 -45 -27 -16 -14 -96
-60 -167 -97 -24 -12 -43 -26 -43 -30 0 -4 -6 -8 -14 -8 -8 0 -27 -10 -43 -22
-15 -13 -35 -27 -44 -33 -48 -29 -129 -88 -139 -100 -7 -8 -17 -15 -23 -15
-19 0 -118 -72 -114 -83 5 -15 65 -28 98 -21 39 8 73 -4 84 -29 8 -18 22 -23
79 -30 62 -8 70 -7 90 12 12 12 26 21 31 21 4 0 31 17 59 38 88 65 132 92 147
92 9 0 24 9 34 20 10 11 23 20 29 20 5 0 21 11 35 24 15 13 61 42 105 65 43
23 96 56 118 75 21 19 54 37 71 40 18 3 59 24 92 46 33 22 68 40 77 40 9 0 19
4 22 8 3 5 40 26 83 46 43 21 85 42 93 47 8 5 31 17 50 25 19 9 37 20 40 24 3
5 20 12 39 17 57 15 69 43 63 151 -4 100 -9 106 -62 76z"/>
<path d="M23340 23051 c0 -11 9 -23 20 -26 11 -3 20 -15 20 -26 0 -11 7 -19
16 -19 9 0 14 -6 11 -12 -2 -8 -15 -12 -30 -10 -22 3 -27 -1 -27 -17 0 -14 -6
-21 -20 -21 -13 0 -20 -7 -20 -20 0 -13 -7 -20 -20 -20 -15 0 -20 -7 -20 -25
0 -20 -5 -25 -25 -25 -20 0 -25 5 -25 24 0 26 -22 40 -38 24 -6 -6 -12 3 -16
27 -6 30 -10 34 -22 25 -19 -17 -18 -33 6 -63 14 -17 20 -40 20 -75 0 -34 6
-57 20 -75 16 -20 20 -40 20 -105 0 -48 6 -94 15 -115 20 -48 20 -212 0 -247
-22 -38 -21 -352 1 -374 19 -19 24 -20 49 -2 11 7 41 16 67 20 43 7 48 5 77
-26 17 -18 31 -38 31 -45 0 -18 78 -37 95 -23 10 8 15 7 19 -2 3 -7 3 8 0 34
-6 48 4 93 40 168 20 43 21 59 19 307 -1 204 -5 268 -16 290 -8 15 -18 51 -22
78 -4 28 -15 64 -26 81 -10 17 -19 47 -19 66 0 22 -7 41 -19 52 -11 10 -22 29
-26 44 -7 27 -75 102 -93 102 -5 0 -17 11 -26 25 -20 30 -36 32 -36 6z"/>
<path d="M19565 22800 c-11 -4 -32 -5 -47 -3 -17 3 -28 1 -28 -6 0 -6 5 -11
10 -11 16 0 11 -19 -10 -40 -18 -18 -26 -19 -56 -11 -38 10 -90 -1 -79 -18 3
-5 19 -13 36 -16 17 -4 40 -16 50 -26 10 -10 29 -19 42 -19 13 0 36 -13 51
-29 16 -16 42 -35 60 -42 17 -7 49 -30 71 -52 22 -21 54 -45 70 -52 17 -7 43
-27 59 -44 17 -17 35 -31 42 -31 6 0 19 -11 28 -25 9 -14 33 -39 53 -57 74
-66 258 -260 281 -297 10 -15 43 -59 75 -97 31 -39 57 -77 57 -84 0 -7 18 -34
40 -60 22 -26 40 -51 40 -55 0 -17 54 -122 80 -155 15 -19 33 -53 40 -75 7
-22 20 -51 29 -64 18 -28 61 -131 61 -147 0 -6 8 -22 18 -35 11 -13 22 -43 26
-67 3 -24 13 -53 20 -65 8 -12 19 -44 25 -72 14 -68 41 -174 53 -210 6 -16 16
-69 23 -117 7 -48 20 -109 28 -135 8 -27 18 -76 21 -111 3 -35 11 -72 16 -83
12 -22 36 -243 45 -414 4 -60 2 -171 -4 -245 -6 -74 -13 -216 -16 -315 -6
-189 -12 -253 -26 -271 -5 -6 -12 -42 -15 -80 -3 -38 -15 -86 -25 -106 -11
-21 -19 -50 -19 -66 0 -16 -8 -40 -19 -53 -10 -13 -21 -45 -25 -71 -4 -25 -13
-52 -21 -58 -8 -7 -18 -28 -21 -48 -4 -20 -15 -50 -26 -67 -10 -16 -18 -36
-18 -43 0 -7 -18 -44 -39 -82 -22 -38 -42 -79 -46 -92 -4 -13 -22 -41 -40 -63
-17 -22 -36 -47 -41 -57 -27 -48 -248 -276 -304 -314 -19 -13 -53 -36 -75 -52
-22 -15 -48 -31 -58 -35 -33 -12 -12 -32 43 -41 44 -6 60 -5 85 8 35 19 81 9
91 -19 4 -8 12 -15 20 -15 8 0 14 -7 14 -15 0 -20 34 -32 123 -46 118 -18 120
-19 179 -114 7 -11 30 -47 51 -80 23 -34 42 -76 45 -100 2 -22 11 -47 19 -57
20 -23 37 -178 36 -333 -1 -188 -19 -426 -36 -466 -8 -19 -17 -68 -21 -109 -4
-41 -13 -82 -20 -90 -8 -8 -16 -38 -19 -67 -6 -48 -24 -102 -68 -199 -11 -22
-19 -50 -19 -62 0 -11 -5 -24 -11 -28 -6 -3 -19 -25 -30 -48 -10 -22 -27 -52
-37 -66 -9 -14 -26 -41 -37 -59 -30 -51 -163 -199 -184 -206 -18 -5 -78 -105
-63 -105 4 0 27 8 52 17 25 9 82 19 128 22 80 6 82 5 82 -16 0 -17 6 -23 23
-24 18 -1 17 -2 -8 -10 -16 -5 -46 -11 -65 -13 -57 -7 -57 -8 -5 -16 28 -5 99
-9 159 -9 l109 -1 109 112 c59 61 108 117 108 123 0 7 20 42 44 77 24 36 46
78 50 93 4 15 23 61 42 100 19 40 34 82 34 94 0 11 9 43 20 70 10 27 24 80 30
118 6 37 16 79 22 93 5 14 14 69 19 123 5 54 16 126 24 160 11 45 15 126 15
293 0 216 -4 273 -31 479 -14 106 -53 234 -90 296 -16 28 -35 65 -43 82 -7 18
-52 71 -101 119 -101 101 -102 109 -32 181 43 45 115 152 131 197 5 14 17 36
27 49 11 13 19 29 19 36 0 11 11 38 66 162 8 17 14 42 14 55 0 13 7 34 16 47
9 13 21 42 26 64 5 23 15 55 23 72 51 115 79 348 94 785 14 389 -7 759 -59
1030 -5 30 -14 82 -19 115 -11 69 -36 187 -56 260 -8 28 -21 82 -29 120 -23
108 -51 214 -75 280 -12 33 -29 83 -37 110 -9 28 -22 57 -29 65 -7 8 -16 26
-20 40 -4 14 -16 36 -26 49 -11 13 -19 31 -19 41 0 9 -9 25 -20 35 -12 11 -35
48 -51 83 -17 35 -55 100 -85 144 -30 43 -54 82 -54 86 0 5 -15 23 -34 41 -19
19 -40 46 -46 62 -7 16 -31 41 -54 57 -24 15 -73 62 -109 104 -77 88 -113 119
-131 112 -7 -3 -36 22 -65 55 -34 38 -64 62 -83 66 -17 4 -39 16 -50 27 -20
20 -20 20 -42 -1 -20 -19 -25 -20 -35 -7 -10 11 -8 17 9 29 20 14 20 15 -15
46 -20 17 -42 31 -49 31 -8 0 -19 6 -25 14 -7 8 -38 27 -69 42 -31 16 -63 37
-70 46 -8 11 -26 18 -46 18 -18 0 -45 9 -59 20 -21 17 -40 20 -109 19 -45 0
-92 -4 -103 -9z m45 -40 c0 -5 -14 -7 -32 -3 -46 8 -48 13 -5 13 21 0 37 -4
37 -10z m260 -40 c0 -5 -2 -10 -4 -10 -3 0 -8 5 -11 10 -3 6 -1 10 4 10 6 0
11 -4 11 -10z m-310 -55 c0 -9 -9 -15 -22 -15 -22 1 -23 1 -4 15 25 19 26 19
26 0z"/>
<path d="M19300 22750 c-13 -8 -12 -10 3 -10 9 0 17 5 17 10 0 12 -1 12 -20 0z"/>
<path d="M26429 22725 c-3 -2 -20 -7 -39 -10 -49 -9 -47 -11 12 -18 57 -7 83
4 50 22 -10 6 -21 8 -23 6z"/>
<path d="M26475 22633 l6 -48 -45 3 c-43 4 -46 3 -46 -21 0 -18 -6 -26 -24
-29 -15 -3 -27 0 -30 8 -3 8 -15 14 -27 14 -12 0 -23 8 -26 20 -3 11 -11 20
-17 20 -6 0 -19 9 -29 20 -18 21 -47 27 -47 10 0 -5 4 -10 9 -10 10 0 256
-244 348 -345 31 -33 70 -92 90 -135 20 -41 49 -91 64 -110 15 -19 35 -60 44
-92 9 -31 22 -62 30 -68 8 -7 15 -22 15 -34 0 -11 9 -41 20 -65 11 -24 20 -58
20 -75 0 -18 9 -68 20 -111 11 -43 20 -93 20 -111 0 -18 -9 -56 -20 -84 -11
-28 -20 -61 -20 -74 0 -40 -61 -146 -121 -211 -71 -76 -79 -104 -30 -117 21
-6 43 -6 60 1 66 26 94 24 134 -10 20 -17 37 -37 37 -45 0 -16 29 -25 72 -23
18 2 45 -5 60 -15 25 -16 27 -16 45 1 10 10 34 30 53 45 23 17 41 42 53 76 10
27 27 58 37 67 10 9 22 35 26 58 3 23 12 51 19 62 18 29 25 214 14 390 -12
207 -33 334 -68 403 -12 24 -31 71 -41 105 -12 39 -31 74 -50 92 -16 16 -30
38 -30 50 0 12 -11 32 -25 45 -14 13 -25 30 -25 38 0 18 -79 97 -140 139 -25
18 -62 47 -82 65 -75 66 -98 80 -124 75 -20 -3 -28 1 -37 20 -9 21 -15 23 -56
18 -25 -3 -56 -8 -68 -11 -19 -4 -22 0 -20 18 2 19 -4 24 -27 26 l-28 4 7 -49z"/>
<path d="M23653 21813 c-8 -3 -13 -24 -13 -54 0 -42 -3 -49 -20 -49 -13 0 -20
-7 -20 -18 0 -11 -10 -24 -23 -29 -19 -9 -26 -8 -35 8 -7 10 -18 19 -26 19 -8
0 -16 7 -20 15 -6 15 -26 21 -26 7 0 -7 109 -143 141 -175 8 -7 23 -26 34 -41
58 -81 108 -142 183 -221 45 -49 82 -92 82 -97 0 -4 29 -44 65 -88 36 -44 65
-85 65 -91 0 -6 17 -31 38 -57 21 -26 44 -58 50 -72 7 -14 23 -43 36 -65 46
-76 126 -240 126 -256 0 -9 9 -28 20 -42 11 -14 20 -40 20 -59 0 -18 8 -47 19
-63 10 -17 22 -62 26 -99 4 -37 13 -83 21 -102 19 -46 19 -289 0 -341 -8 -21
-17 -72 -21 -115 -3 -42 -13 -90 -21 -108 -9 -17 -19 -50 -22 -73 -3 -23 -14
-55 -24 -72 -10 -16 -18 -42 -18 -57 0 -15 -4 -29 -9 -33 -5 -3 -15 -22 -22
-43 -6 -20 -19 -46 -29 -57 -10 -11 -21 -34 -24 -50 -4 -17 -29 -59 -57 -95
-27 -36 -67 -90 -88 -120 -21 -30 -51 -68 -65 -83 -15 -16 -58 -62 -96 -102
-39 -41 -70 -83 -70 -94 0 -11 14 -28 35 -41 31 -19 39 -20 68 -9 31 11 36 10
56 -10 22 -22 44 -20 39 3 -2 6 0 13 5 14 21 6 27 -1 27 -31 0 -29 4 -33 40
-45 22 -6 66 -12 98 -12 l58 0 86 88 c46 48 112 123 146 167 35 44 67 85 72
92 27 33 133 235 156 298 39 105 75 225 85 285 6 36 15 74 19 85 33 81 28 573
-9 775 -26 143 -59 277 -81 325 -48 109 -137 275 -184 345 -16 24 -34 58 -41
75 -8 17 -23 39 -35 50 -12 11 -29 33 -37 50 -9 16 -24 39 -34 50 -10 11 -54
58 -96 105 -43 47 -85 88 -94 91 -8 4 -27 22 -41 42 -17 21 -39 37 -59 41 -17
3 -47 19 -66 36 -18 16 -42 30 -53 30 -10 0 -32 11 -48 25 -17 14 -41 25 -54
25 -14 0 -34 11 -46 25 -12 14 -27 25 -33 25 -6 0 -17 7 -25 15 -9 8 -28 15
-44 15 -21 0 -29 6 -34 25 -6 24 -24 30 -53 18z"/>
<path d="M23422 21754 c1 -9 9 -19 16 -22 9 -3 13 2 10 14 -1 9 -9 19 -16 22
-9 3 -13 -2 -10 -14z"/>
<path d="M33840 21073 c-69 -3 -89 -8 -107 -25 -15 -14 -30 -19 -49 -15 -38 7
-150 -10 -177 -27 -12 -8 -56 -17 -97 -21 -41 -4 -84 -14 -95 -21 -11 -7 -47
-16 -80 -20 -34 -3 -72 -14 -87 -25 -19 -13 -44 -19 -83 -19 -42 0 -60 -5 -75
-20 -15 -15 -33 -20 -75 -20 -54 0 -105 -15 -105 -32 0 -4 -17 -8 -39 -8 -56
0 -101 -18 -101 -41 0 -17 -3 -18 -20 -9 -26 14 -96 -4 -109 -27 -6 -12 -20
-16 -43 -15 -23 2 -44 -5 -60 -18 -15 -11 -34 -20 -43 -20 -9 0 -34 -9 -56
-19 -22 -11 -53 -22 -69 -26 -16 -3 -34 -13 -40 -20 -7 -8 -28 -17 -49 -21
-20 -4 -47 -15 -60 -25 -13 -11 -36 -19 -50 -19 -32 0 -51 -16 -51 -43 0 -14
4 -17 18 -12 9 4 32 11 50 15 19 5 39 16 46 26 11 14 22 16 74 10 54 -6 62 -5
62 10 0 11 5 14 16 10 9 -3 18 -6 20 -6 2 0 4 -7 4 -15 0 -8 -9 -15 -20 -15
-25 0 -27 -37 -2 -43 9 -3 -3 -6 -28 -7 -85 -3 -116 -14 -90 -30 23 -15 123
-12 146 4 13 9 59 17 125 21 57 4 122 12 144 20 22 7 73 16 113 20 40 3 87 12
105 19 18 8 55 17 82 20 28 4 65 14 83 22 17 8 56 17 85 20 28 3 73 14 99 25
26 10 67 19 92 19 25 0 65 7 88 14 24 8 81 22 128 30 47 8 112 20 145 26 231
44 289 52 387 57 l111 6 -6 122 c-4 67 -11 134 -16 149 -12 29 -3 28 -241 19z"/>
<path d="M26808 20963 c6 -2 18 -2 25 0 6 3 1 5 -13 5 -14 0 -19 -2 -12 -5z"/>
<path d="M31975 20510 c3 -5 10 -10 16 -10 5 0 9 5 9 10 0 6 -7 10 -16 10 -8
0 -12 -4 -9 -10z"/>
<path d="M27053 20416 c-4 -5 1 -14 9 -20 11 -8 13 -18 7 -34 -11 -29 -49 -30
-49 -2 0 11 -7 23 -16 27 -23 9 -62 -13 -61 -34 2 -18 -6 -20 -51 -9 -29 6
-52 -2 -52 -19 0 -16 52 -55 72 -55 15 0 264 -250 336 -337 61 -74 122 -160
122 -172 0 -5 19 -33 43 -63 50 -62 127 -190 127 -211 0 -8 9 -22 20 -32 11
-10 20 -25 20 -34 0 -9 6 -25 14 -36 15 -23 69 -160 103 -265 8 -25 21 -60 29
-79 9 -19 18 -57 21 -85 3 -28 12 -61 19 -73 8 -13 17 -58 20 -100 3 -43 13
-98 22 -123 26 -68 25 -496 0 -558 -10 -23 -18 -58 -18 -77 0 -19 -9 -49 -20
-67 -11 -18 -20 -45 -20 -59 0 -15 -9 -37 -19 -51 -11 -13 -23 -38 -27 -54 -4
-16 -15 -40 -26 -53 -10 -13 -18 -29 -19 -35 0 -6 -16 -31 -35 -56 -18 -25
-46 -63 -60 -85 -14 -22 -50 -65 -80 -95 -52 -54 -108 -146 -98 -162 3 -4 18
-1 34 7 16 8 63 20 104 26 42 6 76 15 76 20 0 5 9 9 19 9 11 0 22 6 24 13 3 6
6 -3 6 -20 1 -23 -4 -33 -14 -33 -9 0 -15 -9 -15 -25 0 -18 -7 -26 -25 -31
-41 -10 -29 -21 31 -29 42 -5 61 -3 79 9 13 9 48 19 77 22 29 3 60 12 68 19 8
7 25 16 38 20 12 3 29 18 36 33 8 15 35 47 61 72 26 25 62 73 81 107 19 33 41
67 49 73 8 7 15 18 15 24 0 7 9 29 20 51 11 22 20 46 20 55 0 9 7 26 16 38 21
30 53 140 65 222 21 145 37 371 29 403 -5 17 -14 104 -20 192 -13 203 -17 239
-29 300 -5 28 -12 64 -16 80 -19 97 -29 137 -37 141 -4 3 -8 21 -8 39 0 19 -6
49 -14 67 -18 44 -44 122 -61 183 -7 28 -30 80 -49 117 -20 37 -36 72 -36 79
0 6 -20 45 -45 87 -25 41 -45 79 -45 85 0 9 -49 94 -70 120 -5 7 -32 38 -60
70 -27 31 -50 62 -50 67 0 17 -170 180 -188 180 -9 0 -39 23 -67 51 -27 28
-61 57 -76 64 -15 8 -29 21 -32 30 -4 8 -16 15 -28 15 -13 0 -31 8 -41 17 -11
10 -29 18 -41 18 -12 1 -36 9 -53 18 -33 17 -151 19 -161 3z"/>
<path d="M16875 20021 c-11 -1 -27 -10 -36 -17 -9 -8 -39 -18 -66 -23 -27 -4
-60 -15 -74 -24 -13 -9 -33 -17 -45 -17 -11 0 -29 -9 -39 -20 -10 -11 -27 -20
-37 -20 -24 0 -148 -101 -206 -166 -99 -114 -135 -169 -157 -234 -10 -30 -24
-62 -31 -71 -8 -8 -14 -27 -14 -42 0 -28 -25 -130 -36 -148 -9 -15 -5 -221 5
-233 5 -6 11 -29 15 -51 17 -103 70 -240 129 -335 32 -51 178 -195 223 -219
43 -24 63 -35 115 -68 19 -13 43 -23 54 -23 10 0 26 -7 36 -16 10 -9 37 -18
61 -21 24 -3 50 -12 59 -20 9 -8 51 -16 100 -20 50 -3 91 -11 100 -20 10 -8
45 -15 85 -17 56 -3 73 0 89 15 14 12 42 19 94 23 50 3 77 10 83 19 4 8 24 18
43 21 39 8 100 40 128 68 10 10 26 18 37 18 10 0 30 11 44 25 14 14 33 25 44
25 19 0 55 41 66 76 3 11 19 30 35 42 28 20 101 120 101 136 0 5 9 19 20 33
11 14 20 34 20 43 0 10 6 23 14 29 7 6 16 34 19 62 4 29 14 60 24 71 15 16 17
45 19 210 2 175 0 191 -17 206 -13 11 -19 30 -19 57 0 23 -8 53 -20 70 -11 17
-20 47 -20 67 0 20 -4 39 -9 43 -13 8 -71 94 -71 105 0 15 -183 190 -231 221
-24 16 -55 38 -67 49 -13 11 -34 20 -47 20 -12 0 -28 7 -35 15 -8 9 -29 15
-56 15 -31 0 -49 6 -63 22 -20 20 -29 21 -234 22 -117 1 -222 -1 -232 -3z"/>
<path d="M32267 18625 c-16 -14 -41 -25 -56 -25 -16 0 -34 -7 -41 -15 -6 -8
-51 -26 -98 -41 -48 -15 -93 -31 -99 -36 -17 -14 -7 -28 20 -28 12 0 67 -16
122 -36 55 -19 121 -42 147 -50 26 -8 50 -18 52 -23 3 -5 23 -12 43 -15 21 -4
56 -16 78 -26 22 -11 72 -31 110 -45 39 -15 77 -30 85 -35 8 -5 62 -32 120
-60 58 -29 130 -65 160 -80 104 -55 183 -90 201 -90 11 0 45 -8 76 -19 141
-46 314 -91 347 -91 8 0 4 109 -10 252 l-7 66 -66 28 c-36 15 -77 36 -90 46
-13 10 -31 18 -40 18 -9 0 -31 9 -50 21 -18 11 -57 29 -85 40 -28 11 -60 29
-72 40 -11 10 -40 23 -65 28 -24 4 -80 27 -124 49 -44 23 -90 42 -103 42 -12
0 -39 9 -59 20 -21 11 -51 20 -68 20 -17 0 -41 7 -53 16 -15 10 -51 17 -107
19 -56 2 -92 9 -107 19 -14 10 -43 16 -78 16 -44 -1 -61 -6 -83 -25z"/>
<path d="M24386 17495 c-15 -14 -31 -25 -36 -25 -5 0 -23 -15 -41 -32 -31 -31
-31 -33 -11 -36 14 -2 19 -8 15 -18 -4 -10 -9 -11 -17 -5 -7 6 -28 11 -47 13
-19 1 -37 6 -40 10 -10 15 -39 -4 -39 -26 0 -11 7 -34 16 -51 9 -16 20 -48 25
-70 4 -22 14 -58 23 -80 8 -22 15 -61 16 -87 0 -25 7 -74 16 -107 26 -104 5
-375 -37 -469 -10 -23 -19 -51 -19 -62 0 -17 -26 -76 -62 -140 -5 -8 -14 -26
-21 -40 -7 -14 -26 -45 -42 -69 -37 -54 -40 -59 -54 -91 -6 -14 -15 -32 -21
-40 -44 -67 -68 -120 -55 -120 8 0 24 9 34 19 19 19 93 42 146 44 24 2 31 -2
33 -21 2 -13 -4 -32 -14 -43 -25 -28 -6 -42 65 -47 54 -4 64 -1 147 43 49 26
100 56 114 67 36 28 140 199 140 231 0 7 9 31 21 52 11 22 24 58 29 80 5 22
16 65 26 95 14 47 16 96 16 324 -1 206 -5 280 -16 315 -8 25 -17 64 -21 86 -3
22 -19 63 -35 90 -16 28 -38 69 -49 93 -11 23 -24 42 -29 42 -5 0 -14 11 -22
24 -7 14 -27 30 -44 36 -17 7 -43 18 -57 26 -24 12 -29 12 -53 -11z"/>
<path d="M34540 31830 c-41 -4 -120 -8 -175 -9 -125 -1 -285 -18 -349 -37 -26
-8 -60 -14 -74 -14 -26 0 -94 -23 -180 -61 -23 -10 -50 -19 -60 -19 -10 0 -35
-9 -57 -20 -22 -11 -52 -20 -67 -20 -15 0 -33 -8 -40 -18 -7 -10 -25 -22 -39
-25 -15 -4 -45 -25 -68 -47 -63 -62 -101 -53 -151 35 -17 30 -33 55 -36 55 -7
0 55 -118 66 -125 5 -3 10 -15 10 -25 0 -30 20 -34 48 -11 15 12 54 35 87 52
33 17 71 37 85 44 64 32 118 54 145 58 17 3 49 12 72 21 24 9 75 19 115 22 40
4 82 13 93 19 11 7 44 16 74 19 30 4 68 14 84 23 19 10 44 13 69 10 21 -3 60
0 86 7 73 18 663 16 686 -3 10 -8 41 -18 71 -22 30 -4 84 -23 122 -43 37 -19
86 -44 108 -55 74 -35 142 -141 117 -182 -7 -10 -12 -32 -12 -49 0 -18 -7 -33
-19 -39 -10 -6 -21 -21 -25 -35 -6 -24 -164 -189 -224 -233 -18 -14 -59 -27
-108 -35 l-79 -14 0 -34 0 -35 103 -2 c94 -2 106 -5 134 -28 16 -14 34 -25 39
-25 5 0 43 -34 84 -76 75 -76 118 -138 130 -187 4 -15 15 -43 25 -63 15 -29
18 -50 13 -107 -3 -40 -12 -84 -19 -99 -8 -15 -14 -42 -14 -61 0 -21 -7 -41
-20 -52 -11 -10 -20 -23 -20 -28 0 -6 -28 -40 -62 -76 -59 -61 -125 -105 -225
-151 -24 -11 -43 -24 -43 -30 0 -17 46 -11 73 10 14 11 32 20 40 20 9 0 48 22
89 49 79 54 168 156 168 193 0 12 12 39 26 60 26 37 27 42 27 191 l0 152 -47
90 c-33 65 -66 110 -117 162 -63 64 -84 78 -141 97 -11 3 -18 15 -18 31 0 14
8 32 18 40 98 86 132 119 132 129 0 6 15 27 33 46 18 19 46 62 62 95 24 49 29
74 29 135 1 67 -2 80 -29 119 -32 47 -109 109 -136 110 -9 1 -28 10 -42 21
-14 11 -34 20 -45 20 -12 0 -33 5 -49 11 -54 21 -120 30 -273 39 -85 6 -171
12 -190 14 -19 2 -69 0 -110 -4z"/>
<path d="M32279 31737 c9 -29 24 -65 34 -80 24 -38 25 -248 1 -268 -9 -8 -25
-32 -34 -54 -21 -47 -55 -80 -92 -89 -35 -8 -36 -29 -4 -50 14 -8 36 -27 50
-41 16 -16 31 -23 43 -18 31 11 84 54 93 77 5 11 28 66 51 120 59 137 60 199
6 306 -47 94 -98 150 -137 150 l-28 0 17 -53z m1 -527 c0 -5 -4 -10 -10 -10
-5 0 -10 5 -10 10 0 6 5 10 10 10 6 0 10 -4 10 -10z"/>
<path d="M34080 31013 c-19 -3 -40 -9 -47 -15 -7 -6 -46 -9 -90 -7 -64 3 -78
1 -78 -11 0 -8 16 -23 35 -32 36 -18 50 -18 180 4 36 6 125 12 199 13 112 2
135 5 143 19 5 9 7 20 4 25 -6 9 -281 12 -346 4z"/>
<path d="M32114 30976 c-3 -8 6 -32 20 -53 14 -21 26 -44 26 -53 0 -8 9 -28
20 -45 13 -19 20 -48 20 -80 1 -27 4 -68 9 -90 10 -57 -11 -266 -30 -296 -9
-13 -20 -40 -24 -59 -4 -19 -16 -46 -26 -59 -11 -13 -19 -32 -19 -41 0 -16
-48 -70 -125 -140 -35 -33 -95 -70 -113 -70 -9 0 -23 -4 -31 -9 -22 -14 -1
-33 59 -55 47 -17 53 -17 84 -2 19 9 45 16 58 16 29 0 111 70 146 124 45 70
66 120 108 261 9 28 21 64 27 80 18 47 21 312 4 338 -8 12 -17 37 -20 54 -6
31 -53 111 -94 160 -23 27 -91 41 -99 19z"/>
<path d="M30825 30460 c-4 -6 -4 -26 -1 -43 4 -22 0 -44 -13 -67 -10 -19 -22
-50 -26 -68 -8 -40 -124 -155 -191 -191 -24 -13 -44 -29 -44 -37 0 -21 66 -44
126 -44 49 0 57 4 106 47 55 48 108 118 108 141 0 8 9 27 20 42 27 37 39 176
18 202 -16 20 -93 34 -103 18z"/>
<path d="M33770 30255 c0 -19 92 -50 194 -64 37 -5 76 -17 85 -25 9 -8 41 -18
71 -21 30 -4 65 -13 76 -21 12 -7 46 -16 75 -20 30 -3 69 -15 87 -25 18 -11
39 -19 46 -19 20 0 59 47 53 64 -5 13 -92 46 -123 46 -6 0 -25 7 -40 15 -16 8
-55 15 -87 15 -36 0 -67 6 -83 16 -17 12 -52 17 -117 19 -50 2 -125 10 -164
18 -58 12 -73 12 -73 2z"/>
<path d="M34910 29981 c0 -29 24 -65 88 -131 121 -124 141 -177 123 -323 -7
-56 -18 -109 -26 -117 -7 -8 -16 -29 -19 -46 -4 -17 -22 -46 -41 -64 -18 -18
-39 -44 -45 -59 -6 -14 -36 -45 -68 -68 -32 -23 -71 -56 -88 -72 -16 -17 -37
-31 -47 -31 -11 0 -30 -9 -44 -20 -14 -11 -36 -20 -49 -20 -12 0 -29 -6 -36
-13 -21 -22 -169 -41 -250 -32 -84 8 -137 32 -195 88 -24 22 -45 38 -48 35
-12 -12 27 -174 55 -228 11 -22 20 -52 20 -68 0 -16 8 -40 19 -53 23 -30 31
-75 38 -210 6 -131 -7 -208 -44 -255 -31 -40 -135 -121 -173 -136 -14 -6 -82
-10 -152 -11 -119 0 -129 2 -180 28 -140 72 -320 209 -359 271 -11 19 -33 43
-49 54 -15 11 -44 44 -63 72 -20 29 -52 70 -71 91 -20 21 -36 42 -36 47 0 8
-79 132 -101 158 -16 19 -59 101 -59 112 0 5 -20 38 -45 74 -25 37 -45 74 -45
84 0 9 -9 31 -20 47 -11 17 -20 44 -20 61 0 18 -8 38 -20 49 -11 10 -20 29
-20 42 0 13 -8 40 -19 61 -10 20 -22 52 -26 69 -3 18 -11 36 -17 39 -7 5 -9
-2 -4 -22 4 -16 11 -59 15 -97 5 -39 15 -75 25 -85 9 -10 16 -29 16 -41 0 -12
9 -39 20 -61 11 -22 20 -48 20 -58 0 -11 9 -31 20 -45 11 -14 20 -31 20 -38 0
-19 62 -143 76 -152 7 -4 16 -22 20 -39 3 -18 16 -47 28 -64 11 -17 51 -76 87
-130 36 -55 76 -108 89 -119 12 -11 36 -40 53 -65 48 -71 289 -300 315 -300 5
0 17 -9 27 -20 10 -11 27 -20 37 -20 11 0 31 -9 45 -20 14 -11 37 -20 50 -20
13 0 41 -9 63 -20 47 -24 128 -26 169 -5 16 8 31 12 34 9 2 -3 34 9 69 25 36
17 71 31 78 31 13 0 133 106 139 124 2 6 11 19 19 29 9 10 19 39 23 65 4 26
12 72 17 102 9 51 6 114 -14 275 -4 27 -15 61 -25 74 -11 13 -19 36 -19 51 0
15 -9 39 -20 52 -16 21 -17 28 -6 43 12 16 16 16 73 -5 53 -19 76 -21 200 -18
112 2 145 6 159 19 11 9 32 19 48 23 16 4 41 16 54 27 14 10 28 19 33 19 17 0
98 61 129 97 52 61 120 155 120 165 0 5 9 21 20 35 11 14 20 35 20 47 0 12 7
31 15 43 9 12 21 58 27 102 24 165 -27 325 -124 384 -26 15 -28 21 -22 52 6
32 4 35 -19 35 -13 0 -39 3 -56 6 -27 6 -31 4 -31 -15z"/>
<path d="M33457 29633 c-4 -4 18 -32 50 -63 58 -56 124 -131 176 -201 16 -21
51 -57 80 -79 47 -38 52 -40 64 -24 30 41 12 91 -63 174 -104 117 -129 139
-176 162 -56 28 -120 43 -131 31z"/>
<path d="M8773 11506 c-113 -26 -190 -71 -284 -165 -63 -64 -96 -106 -127
-166 -145 -282 -144 -662 1 -940 56 -107 185 -239 277 -284 92 -44 161 -61
260 -61 152 0 270 50 380 160 97 98 155 206 202 378 18 66 22 105 22 267 1
227 -16 311 -93 470 -107 218 -278 340 -491 351 -52 2 -109 -2 -147 -10z"/>
<path d="M36763 11495 c-164 -44 -295 -164 -383 -347 -115 -239 -132 -584 -44
-857 131 -402 486 -577 818 -403 87 45 196 151 249 242 174 299 182 719 19
1034 -83 162 -234 291 -387 331 -73 19 -202 18 -272 0z"/>
<path d="M35253 11273 l-323 -3 0 -208 c0 -114 7 -666 16 -1228 8 -561 14
-1039 12 -1063 l-3 -43 -42 64 c-199 301 -472 459 -823 475 -566 26 -1055
-307 -1373 -934 -177 -350 -286 -746 -339 -1238 -20 -188 -17 -792 6 -975 113
-917 446 -1554 958 -1830 178 -96 358 -135 573 -127 269 12 485 86 685 235
142 106 279 267 368 430 l39 73 7 -62 c3 -34 6 -138 6 -230 l0 -169 26 0 c58
0 989 152 1000 163 8 7 -84 6540 -92 6625 l-5 52 -187 -2 c-103 -2 -332 -4
-509 -5z m-910 -3268 c304 -64 533 -360 622 -799 92 -456 24 -984 -167 -1311
-161 -275 -386 -429 -648 -442 -244 -13 -439 105 -584 353 -215 370 -260 1063
-100 1552 137 418 404 658 734 661 41 0 106 -6 143 -14z"/>
<path d="M24390 11250 c-102 -12 -188 -38 -286 -85 -428 -207 -694 -745 -744
-1510 -5 -88 -10 -294 -10 -457 l0 -298 -285 0 -285 0 0 -695 0 -695 285 0
285 0 0 -1975 0 -1975 520 0 520 0 0 1975 0 1975 264 0 c144 0 291 3 325 6
l61 7 0 693 0 694 -325 0 -325 0 0 275 c0 211 4 294 16 352 28 139 89 242 171
290 48 28 49 28 226 28 l177 0 0 556 c0 306 -3 610 -6 677 l-7 120 -86 16
c-91 17 -306 36 -381 34 -25 0 -74 -4 -110 -8z"/>
<path d="M13806 10474 c-3 -60 -9 -387 -12 -727 -4 -339 -9 -619 -13 -621 -3
-2 -130 2 -281 10 -151 7 -300 13 -331 14 l-56 0 -8 -630 c-4 -347 -6 -632 -4
-634 2 -2 153 -13 334 -26 182 -12 331 -23 333 -25 1 -1 -9 -818 -22 -1816
-14 -997 -23 -1815 -22 -1817 8 -7 1028 -135 1032 -129 1 1 11 832 24 1847 12
1015 23 1846 25 1848 2 3 485 -23 611 -32 l61 -5 7 655 c4 361 5 658 3 661 -3
2 -153 11 -334 19 -180 7 -329 14 -331 14 -4 0 8 1363 12 1432 2 37 -1 49 -13
52 -9 2 -239 8 -512 11 l-497 7 -6 -108z"/>
<path d="M2703 9897 c12 -31 251 -799 355 -1142 217 -709 490 -1642 657 -2245
49 -173 90 -317 92 -319 6 -8 1004 -273 1009 -268 4 4 273 894 450 1490 126
426 170 562 177 546 12 -35 313 -1244 442 -1779 64 -267 121 -502 126 -522 l9
-36 171 -42 c289 -70 819 -190 837 -190 14 0 30 41 81 213 356 1190 598 2015
876 2987 231 807 239 839 231 848 -10 9 -999 81 -1007 73 -3 -3 -68 -262 -143
-576 -311 -1289 -489 -1991 -497 -1965 -5 14 -56 257 -114 540 -92 445 -159
763 -396 1885 -23 110 -46 204 -50 208 -6 8 -1040 101 -1044 94 -1 -1 -55
-209 -119 -462 -282 -1105 -477 -1845 -486 -1845 -3 0 -21 64 -39 143 -92 399
-291 1239 -371 1569 -50 205 -109 447 -131 538 l-40 166 -517 47 c-284 26
-528 50 -541 53 -18 4 -22 1 -18 -9z"/>
<path d="M42875 9853 c-765 -66 -1351 -497 -1486 -1093 -11 -47 -22 -143 -25
-215 -24 -524 195 -864 637 -985 194 -53 306 -62 739 -65 241 -1 414 -7 464
-14 126 -20 203 -48 249 -90 35 -33 41 -44 45 -93 5 -69 -18 -127 -80 -194
-116 -126 -366 -239 -585 -264 -261 -29 -442 71 -498 276 -2 7 -169 -22 -492
-86 l-488 -98 3 -53 c8 -125 61 -328 115 -434 90 -179 251 -333 440 -420 245
-113 597 -129 942 -44 289 72 588 203 830 364 552 366 843 854 795 1329 -48
470 -349 675 -1065 726 -77 5 -198 10 -270 10 -164 0 -384 16 -497 35 -153 26
-246 74 -284 146 -21 41 -18 122 7 171 57 111 217 203 434 249 92 20 297 17
370 -5 129 -38 216 -110 251 -204 10 -26 20 -50 23 -54 8 -9 965 133 978 145
10 10 -28 190 -57 268 -137 376 -540 633 -1080 688 -95 10 -322 12 -415 4z"/>
<path d="M39377 9579 c-565 -65 -1042 -421 -1334 -994 -150 -295 -242 -607
-290 -985 -23 -189 -23 -644 1 -825 75 -572 255 -993 549 -1286 181 -181 398
-297 644 -346 107 -21 343 -23 453 -4 812 139 1511 782 1720 1584 13 48 20 90
17 93 -3 3 -178 -26 -389 -66 -211 -39 -437 -81 -503 -94 l-120 -22 -35 -64
c-95 -174 -323 -323 -573 -374 -315 -65 -562 80 -691 406 -26 66 -71 237 -64
244 3 2 222 38 489 79 447 70 1458 238 1816 301 l152 27 8 46 c16 91 9 557
-10 686 -135 913 -680 1504 -1472 1595 -102 11 -267 11 -368 -1z m348 -1024
c229 -59 397 -245 481 -534 26 -90 30 -131 13 -131 -6 0 -125 -16 -265 -35
-296 -41 -1181 -155 -1201 -155 -16 0 -13 28 23 173 53 216 132 366 258 493
93 92 201 154 328 185 94 23 281 25 363 4z"/>
<path d="M8346 9103 c-13 -656 -58 -3995 -53 -3999 12 -13 1005 -209 1014
-201 4 5 54 3200 65 4162 l3 300 -460 32 c-253 17 -483 32 -511 32 l-51 1 -7
-327z"/>
<path d="M36925 9315 c-275 -18 -501 -34 -502 -34 -9 -3 54 -4611 63 -4620 6
-6 1012 173 1021 182 4 5 -56 4105 -63 4325 -3 100 -9 181 -13 181 -3 -1 -231
-16 -506 -34z"/>
<path d="M9806 9178 c-8 -220 -67 -4340 -62 -4345 10 -10 1014 -189 1020 -182
2 2 11 537 20 1189 9 652 21 1252 27 1333 35 515 198 835 470 927 85 29 243
25 331 -9 215 -83 354 -319 413 -701 26 -169 27 -444 7 -1725 -10 -665 -16
-1213 -13 -1217 8 -9 1022 -162 1027 -155 3 6 35 2590 34 2843 0 417 -27 673
-99 961 -95 375 -244 670 -445 881 -113 118 -195 180 -321 242 -126 63 -249
98 -384 110 -278 24 -530 -47 -727 -204 -88 -71 -148 -136 -224 -246 l-50 -74
0 235 0 234 -482 28 c-266 16 -495 30 -509 33 l-27 5 -6 -163z"/>
<path d="M30235 9114 c-780 -137 -1365 -924 -1534 -2064 -36 -245 -45 -388
-45 -680 2 -645 110 -1166 339 -1635 312 -639 792 -985 1364 -985 323 0 631
105 911 311 111 81 308 279 397 399 201 268 355 586 457 940 226 789 199 1707
-71 2440 -52 143 -182 402 -261 520 -193 290 -406 485 -677 620 -224 111 -394
151 -650 149 -82 0 -186 -7 -230 -15z m389 -1330 c109 -28 192 -79 291 -179
212 -213 325 -527 355 -983 28 -426 -55 -853 -223 -1138 -67 -114 -214 -266
-307 -317 -185 -101 -389 -108 -565 -20 -264 134 -451 499 -505 988 -13 118
-13 450 1 573 62 579 311 985 659 1076 74 20 218 20 294 0z"/>
<path d="M16905 9105 c-205 -33 -407 -115 -587 -236 -118 -80 -340 -301 -428
-426 -277 -395 -441 -858 -517 -1463 -28 -227 -25 -813 5 -1043 78 -588 239
-1052 502 -1441 316 -470 744 -743 1227 -785 787 -69 1449 518 1662 1472 14
64 16 89 8 92 -7 1 -196 13 -422 25 -225 12 -455 24 -510 27 l-100 6 -25 -54
c-33 -72 -156 -195 -237 -237 -130 -68 -324 -91 -473 -56 -314 73 -548 406
-624 887 -13 82 -12 87 5 87 10 0 186 -11 391 -25 934 -62 2075 -122 2088
-109 17 18 33 407 27 659 -33 1398 -620 2416 -1502 2607 -122 26 -368 33 -490
13z m330 -1240 c214 -38 398 -196 511 -439 61 -133 116 -327 139 -490 l7 -48
-119 6 c-65 4 -343 18 -618 32 -593 30 -765 40 -773 48 -8 9 35 208 69 314
143 445 413 643 784 577z"/>
<path d="M26535 9034 c-422 -71 -799 -340 -1078 -769 -264 -406 -424 -903
-494 -1535 -21 -195 -24 -722 -5 -915 54 -535 176 -979 373 -1355 267 -510
654 -836 1109 -935 118 -26 334 -31 470 -11 144 21 321 80 458 151 485 253
872 807 1062 1520 203 760 185 1677 -47 2400 -103 322 -269 640 -451 866 -92
115 -271 281 -380 353 -186 124 -379 201 -582 231 -116 18 -327 18 -435 -1z
m398 -1383 c142 -49 275 -154 364 -286 331 -493 365 -1465 72 -2037 -150 -292
-370 -451 -624 -451 -350 0 -624 302 -739 814 -78 349 -80 796 -6 1131 87 389
266 676 492 787 46 23 112 48 148 56 83 19 216 12 293 -14z"/>
<path d="M20988 9030 c-303 -55 -542 -236 -723 -547 -26 -46 -50 -83 -53 -83
-2 0 -2 119 1 264 l5 264 -397 6 c-218 3 -451 8 -518 11 l-123 6 0 -298 c0
-164 -7 -1189 -15 -2278 -8 -1089 -15 -2138 -15 -2332 l0 -352 43 -5 c55 -8
982 -55 994 -52 0 1 4 615 7 1366 4 751 11 1430 17 1509 32 458 170 780 410
961 184 138 439 183 684 120 85 -22 210 -77 260 -114 16 -12 36 -26 43 -30 9
-6 12 147 12 749 l0 755 -57 26 c-102 45 -167 56 -353 59 -96 2 -196 0 -222
-5z"/>
</g>
</svg>
