<svg width="20" height="20" viewBox="0 0 20 20" fill="none" xmlns="http://www.w3.org/2000/svg">
<path d="M10 4.00024C9.20888 4.00024 8.43552 4.23484 7.77772 4.67437C7.11993 5.11389 6.60724 5.73861 6.30449 6.46951C6.00174 7.20041 5.92252 8.00468 6.07686 8.78061C6.2312 9.55653 6.61217 10.2693 7.17158 10.8287C7.73099 11.3881 8.44372 11.769 9.21964 11.9234C9.99557 12.0777 10.7998 11.9985 11.5307 11.6958C12.2616 11.393 12.8864 10.8803 13.3259 10.2225C13.7654 9.56473 14 8.79137 14 8.00024C14 6.93938 13.5786 5.92196 12.8284 5.17182C12.0783 4.42167 11.0609 4.00024 10 4.00024ZM10 10.0002C9.60444 10.0002 9.21776 9.88295 8.88886 9.66318C8.55997 9.44342 8.30362 9.13106 8.15225 8.76561C8.00087 8.40016 7.96126 7.99803 8.03843 7.61006C8.1156 7.2221 8.30609 6.86574 8.58579 6.58603C8.8655 6.30633 9.22186 6.11584 9.60982 6.03867C9.99779 5.9615 10.3999 6.00111 10.7654 6.15248C11.1308 6.30386 11.4432 6.56021 11.6629 6.8891C11.8827 7.218 12 7.60468 12 8.00024C12 8.53068 11.7893 9.03938 11.4142 9.41446C11.0391 9.78953 10.5304 10.0002 10 10.0002ZM10 0.000244141C8.02219 0.000244141 6.08879 0.586734 4.4443 1.68555C2.79981 2.78436 1.51809 4.34615 0.761209 6.17341C0.00433284 8.00067 -0.193701 10.0113 0.192152 11.9511C0.578004 13.891 1.53041 15.6728 2.92894 17.0713C4.32746 18.4698 6.10929 19.4222 8.0491 19.8081C9.98891 20.194 11.9996 19.9959 13.8268 19.239C15.6541 18.4822 17.2159 17.2004 18.3147 15.5559C19.4135 13.9115 20 11.9781 20 10.0002C20 8.68703 19.7413 7.38667 19.2388 6.17341C18.7363 4.96015 17.9997 3.85776 17.0711 2.92918C16.1425 2.00059 15.0401 1.264 13.8268 0.761449C12.6136 0.258902 11.3132 0.000244141 10 0.000244141ZM6 16.9202V16.0002C6 15.735 6.10536 15.4807 6.2929 15.2931C6.48043 15.1056 6.73479 15.0002 7 15.0002H13C13.2652 15.0002 13.5196 15.1056 13.7071 15.2931C13.8946 15.4807 14 15.735 14 16.0002V16.9202C12.7855 17.6273 11.4053 17.9998 10 17.9998C8.59469 17.9998 7.21448 17.6273 6 16.9202ZM15.93 15.3502C15.782 14.6835 15.411 14.0873 14.8783 13.66C14.3455 13.2327 13.6829 13 13 13.0002H7C6.31707 13 5.65448 13.2327 5.12174 13.66C4.58899 14.0873 4.21797 14.6835 4.07 15.3502C3.03059 14.2024 2.34665 12.7776 2.10117 11.2486C1.85569 9.7197 2.05921 8.15238 2.68705 6.73685C3.31489 5.32132 4.34005 4.11843 5.63815 3.27413C6.93625 2.42983 8.45149 1.98041 10 1.98041C11.5485 1.98041 13.0638 2.42983 14.3619 3.27413C15.66 4.11843 16.6851 5.32132 17.313 6.73685C17.9408 8.15238 18.1443 9.7197 17.8988 11.2486C17.6534 12.7776 16.9694 14.2024 15.93 15.3502Z" fill="#0D0D0D"/>
</svg>
